<?xml version="1.0"?>
<svg width="1022" height="1023" xmlns="http://www.w3.org/2000/svg" xmlns:svg="http://www.w3.org/2000/svg" enable-background="new 0 0 1022 1023" version="1.1" xml:space="preserve">
 <g class="layer">
  <title>Layer 1</title>
  <ellipse cx="510.5" cy="557.5" fill="#014D84" id="svg_205" rx="329.5" ry="328.5" transform="matrix(1 0 0 1 0 0)"/>
  <ellipse cx="688.1" cy="180.69" fill="#014d84" id="svg_1" rx="36.5" ry="103.92" stroke="#014d84" transform="matrix(0.776179 0.630512 -0.630512 0.776179 279.411 -391.096)"/>
  <path d="m289.9,566.84c2.81,-12.67 6.97,-24.42 13.5,-35.27c0.74,-1.22 2.81,-2.26 0.9,-4.44c-0.79,-0.65 -1.45,-0.62 -2.32,-0.91c-0.3,-0.09 -0.68,-0.07 -0.84,-0.19c-0.6,-0.52 -1.2,-0.52 -2,-0.81c-0.25,-0.13 -0.13,-0.2 -0.19,-0.16c-0.85,-2.15 -2.47,-3.1 -5.1,-3.1c-1.36,0 -2.21,-0.43 -3.3,-1.21c-6.05,-4.39 -12.75,-7.1 -18.25,-11.72c-2.25,-1.88 -4.29,-3.67 -4.59,-7.14c0.01,-0.62 0.03,-0.86 0.13,-1.47c0.21,-0.84 0.38,-1.3 0.73,-2.08c1.13,-2.09 2.21,-4.01 4.37,-4.19c4.96,-0.42 3.42,-2.92 1.62,-5.08c-2.68,-3.21 -1.64,-5.04 1.52,-7.04c4.24,-2.68 4.29,-3.77 0.06,-5.96c-2.92,-1.52 -2.81,-5.29 -4.98,-6.34c-2.21,-1.07 -3.61,3.68 -6.73,2.89c-0.49,-0.12 -0.94,-0.33 -1.64,-0.78c-0.77,-0.62 -1.21,-1.1 -1.89,-1.76c-0.37,-0.34 -0.52,-0.46 -0.91,-0.73c-2.02,0.12 -3.07,1.19 -3.88,2.75c-1.27,2.44 -3.32,3.57 -6.15,3.12c-3.2,-0.52 -2.15,-3.18 -2.63,-5.09c-0.29,-1.14 -0.33,-2.28 -0.31,-3.78c-0.02,-0.51 -0.06,-0.69 0,-1.11c0.8,-1.31 0.32,-2.53 0.78,-3.93c1.25,-6.34 5.17,-10.27 10.1,-13.36c3.1,-1.95 6.49,-3.44 9.5,-5.49c8.34,-5.66 9.55,-14.48 3.3,-22.41c-1.78,-2.26 -3.83,-4.27 -6.28,-5.66c-12.86,-7.33 -19.28,-19.44 -24.16,-32.56c-5.69,-15.26 -8.39,-31.01 -8.18,-47.42c0.21,-16.31 -0.5,-32.64 -1.14,-48.96c-1.66,-41.87 -0.19,-83.61 5.25,-125.16c2.1,-16 4.9,-31.91 9.73,-47.38c0.6,-1.9 1.27,-3.79 2.01,-5.64c6.78,-16.96 15.61,-20.72 32.03,-12.91c19.64,9.34 36.02,23.33 51.71,38.04c41.53,38.95 76.19,83.63 107.98,130.66c1.76,2.61 3.46,5.26 5.55,8.44c-5.24,1.82 -10.17,3.5 -15.07,5.23c-39.35,13.85 -74.64,34.89 -107.45,60.39c-9.59,7.45 -19.22,14.85 -29.42,21.5c-5.89,3.84 -12.1,6.96 -19.01,9.58c-5.92,4.77 -12.04,3.86 -18.64,1.79c-0.79,-0.34 -1.18,-0.61 -1.54,-0.92c-0.33,-0.28 -0.69,-0.62 -0.98,0.06c0.22,-0.55 0.53,-0.46 1.15,0.1c4.99,2.62 10.09,2.76 15.19,2.5c2.18,-0.11 4.25,-0.1 6.66,0.65c0.38,-0.02 0.69,0.04 0.81,-0.06c1.38,-1.53 3.07,-0.47 4.86,-1.04c11.57,-3.2 22.71,-6.6 34.02,-9.19c28.15,-6.45 55.56,-1.91 82.61,6.35c11.29,3.45 22.41,7.42 33.47,12.54c1.16,0.47 2.05,1.05 2.44,-0.59c-21.73,-25.43 -19.55,-65.99 4.8,-90.76c7.19,-7.31 15.3,-13.26 25.38,-16.83c0.54,1.97 0.54,1.97 -0.38,3.44c1.56,-0.83 3.1,-1.83 5.07,-0.21c0.08,3.55 -2.43,5.24 -4.42,7.14c-10.16,9.75 -15.47,21.88 -15.51,35.68c-0.06,19.43 8.98,35.4 28.5,44.28c12.13,5.52 24.9,5.11 38.06,2.67c1.59,-0.37 2.93,-0.38 3.96,-1.43c-1.16,-1.3 -2.96,-1.24 -4.62,-2.26c-12.25,-6.13 -20.74,-15.4 -26.39,-27.38c-0.64,-1.36 -1.28,-2.72 -1.69,-4.16c-0.45,-1.59 -1.18,-3.38 0.23,-4.71c1.37,-1.3 3.15,-0.66 4.73,-0.11c12.42,4.32 25.21,5.97 38.32,5.51c6.14,-0.22 6.04,-0.12 5.98,-6.1c-0.08,-9.2 -1.48,-18.24 -3.07,-27.25c-0.92,-5.21 -2.01,-6.1 -6.99,-5.22c-14.85,2.63 -29.31,6.31 -41.13,16.59c-1.65,1.44 -3.69,3.96 -5.96,2.44c-2.23,-1.5 -0.81,-4.33 -0.16,-6.49c4.06,-13.67 12.87,-23.52 25.21,-30.21c7.48,-4.05 15.56,-6.7 24.28,-8.47c22.51,1.1 42.26,8 57.22,24.98c18.48,20.98 22.89,45.11 14.25,71.63c-1.67,5.11 -4.74,9.5 -8.04,14.08c-0.55,1.36 -1.55,2.07 -1.8,3.27c-0.34,1.64 0.73,0.93 1.69,0.74c5.59,-0.33 10.12,-3.02 14.94,-4.73c27.83,-9.83 56.08,-17.99 85.56,-21c14.73,-1.51 29.3,-1.01 42.98,5.7c1.49,0.73 3.09,1.29 4.49,2.78c1.16,-0.03 1.94,-0.17 1.43,-1.6c-8.17,-13.09 -19.05,-23.31 -30.06,-33.41c-10.06,-9.23 -21.45,-16.74 -32.32,-24.92c-15.41,-11.6 -21.37,-26.92 -17.7,-46.3c1.29,-2.65 3.54,-3.41 5.7,-4.24c16.14,-6.16 32.72,-10.23 50.11,-10.34c2.5,-0.02 4.97,-0.45 7.46,-0.61c1.83,-0.11 4.01,-0.21 4.76,1.84c0.84,2.31 -1.37,3.15 -2.88,4.02c-11.85,6.8 -23.52,13.88 -34.74,21.68c-3.22,2.24 -6.6,4.3 -9.34,7.13c1.37,1.99 3.18,1.9 4.72,2.34c13.64,3.9 27.62,3.9 41.63,3.5c1,-0.03 1.99,-0.18 2.99,-0.16c1.31,0.02 2.87,-0.13 3.39,1.42c0.5,1.47 -0.62,2.53 -1.61,3.4c-4.29,3.76 -9.18,6.6 -14.35,8.95c-5.82,2.63 -11.96,4.15 -18.27,4.94c-3.44,0.43 -3.33,1.72 -1.58,4.11c5.88,8.02 15.99,9.63 24.87,3.9c7.65,-4.94 12.65,-12.25 17.37,-19.7c13.19,-20.82 19.49,-43.96 22.83,-68.13c2.33,-16.91 2.4,-33.89 1.87,-50.85c-0.46,-14.63 -2.04,-29.23 -5.64,-43.5c-1.45,-5.75 -3.26,-11.34 -10.28,-13.38c-4.97,-0.21 -8.15,2.95 -11.46,5.62c-23.34,18.77 -41.68,41.96 -58.65,66.4c-11.79,16.98 -21,35.57 -33,52.39c-10.11,14.16 -22.69,25.23 -39.86,30.11c-7.28,2.07 -14.73,2.44 -22.27,2.34c-4.62,-0.06 -4.15,-1.57 -2.13,-4.48c7.68,-11.09 15.11,-22.36 22.98,-33.31c26.19,-36.49 54.83,-70.89 87.58,-101.72c13.85,-13.03 28.32,-25.34 45.17,-34.46c3.64,-1.97 7.47,-3.7 11.4,-5.02c10,-3.36 16.69,-0.75 21.84,8.41c5.46,9.7 7.99,20.45 10.18,31.2c8.44,41.66 10.87,83.83 10.47,126.24c-0.15,15.67 -0.66,31.32 -2.57,47.3c-1.08,2.61 0.56,4.59 0.53,7.1c-0.8,3.34 -1.68,6.25 -1.91,9.68c-0.02,0.61 -0.04,0.85 -0.11,1.45c-0.36,1.46 -0.95,2.49 -0.94,4.02c-0.06,0.55 -0.09,0.77 -0.2,1.32c-0.29,1.17 -0.71,1.95 -0.83,3.15c-0.1,0.54 -0.14,0.75 -0.28,1.28c-0.66,1.94 -1.46,3.5 -1.71,5.57c-0.09,0.55 -0.13,0.76 -0.28,1.3c-0.68,1.74 -1.71,3 -1.75,4.98c-0.1,0.56 -0.15,0.79 -0.33,1.34c-1.82,4.47 -3.86,8.46 -5.64,12.96c-10.04,20.55 -25.87,34.36 -46.5,42.92c-1.84,0.77 -3.76,1.37 -6.2,1.3c-12.95,-0.12 -25.03,-3.66 -37.41,-5.12c-21.2,-2.51 -42.43,-4.04 -63.66,-1.39c-40.61,5.07 -70.94,35.49 -76.7,75.97c-1.64,11.48 -1.03,22.88 -0.08,34.73c-0.44,3.74 -0.66,7.06 0.28,10.75c1.12,8.58 1.86,16.79 2.45,25.01c0.51,7.1 2.75,13.54 6.46,19.56c1.03,1.68 2.05,3.42 1.77,5.95c-0.27,0.65 -0.42,0.89 -0.98,1.28c-7.47,-2.22 -14.36,-5.17 -22.15,-4.37c-3.81,0.39 -7.6,0.88 -11.37,1.52c-5.94,1.01 -11.86,1.75 -17.85,0.42c-11.57,-2.57 -23.07,-3 -34.88,0.97c-1.01,-0.19 -1.49,-0.49 -2.09,-1.31c-0.69,-2.36 0.26,-3.94 1.23,-5.5c4.42,-7.14 6.16,-14.99 6.44,-23.28c0.21,-5.98 1.48,-11.87 1.53,-18.29c1.19,-3.68 0.97,-7.01 0.54,-10.77c1.43,-16.22 2.18,-31.99 -2.27,-47.52c-10.27,-35.76 -33.7,-56.94 -70.4,-63.07c-18.7,-3.12 -37.46,-1.56 -56.21,0.25c-11.79,1.14 -23.29,4.03 -35.05,5.29c-2.16,0.23 -4.17,1.08 -6.44,2.38c-10.13,-0.09 -19.87,0.55 -29.95,-0.57c-2.12,-0.62 -3.96,-0.12 -5.7,-0.64c0,0 -0.01,0.01 -0.01,0.02c-0.01,0.05 0.15,0.08 0.47,0.13c0.64,0.1 1.29,0.11 2.3,0.13c12.8,2.01 23,8.6 32.29,16.5c11.6,9.87 19.44,22.65 25.74,36.37c6.14,13.36 12.89,26.26 23.54,36.75c17.68,17.42 40.45,21.42 62.89,10.74c4.99,-2.37 10.04,-4.48 15.46,-5.53c14.25,-2.76 28.01,6.08 31.6,20.59c0.36,3.16 -0.68,5.6 -1.83,8.03c-13.32,28.16 -34.64,46.71 -65.16,54.19c-3.07,0.75 -6.14,1.46 -9.52,2.56c-9.73,-0.46 -18.78,-2.58 -28.14,-5.16c-0.63,-0.16 -0.87,-0.25 -1.48,-0.46c-1.35,-0.34 -2.23,-0.86 -3.6,-1.11c-3.53,-0.89 -6.77,-1.51 -9.78,-3.77c-0.55,-0.71 -0.73,-1.19 -0.82,-2.09c0.38,-2.7 1.7,-4.56 3.17,-6.75c0.47,-0.39 0.68,-0.52 1.24,-0.76c0.99,-0.24 1.65,-0.29 2.3,-0.15c1.74,0.36 3.83,1.42 5,-0.43c1.31,-2.06 -1.15,-3.45 -1.72,-5.21c-0.63,-1.95 -4.86,-1.26 -3.22,-4.55c0.97,-1.96 3.37,-1.91 4.9,-3.12c0.26,-0.2 0.54,-0.38 0.98,-0.85c0.67,-0.8 1.31,-1.22 1.64,-2.11c-0.01,-0.21 -0.33,-0.49 -0.55,-0.55c-0.74,-0.11 -1.26,-0.21 -2.05,-0.44c-1.44,-0.66 -2.6,-1.22 -4,-2.03c-0.76,-0.67 -1.2,-1.2 -1.31,-1.86c-1.05,-6.04 -1.06,-6.08 -6.55,-2.43c-2.15,1.43 -4.17,1.77 -6.49,0.41c-1.47,-0.86 -3.37,-3.27 -4.57,-1.83c-1.76,2.12 -3.79,5.16 -2.35,8.11c1.44,2.95 0.85,4.42 -1.67,6.14c-3.68,2.53 0.32,4.36 1.05,6.82c0.21,0.54 0.28,0.76 0.4,1.31c0.07,3.23 1.09,5.77 3.14,8.15c6.04,2.25 11.26,5.54 17.29,7.84c0.53,0.19 0.74,0.26 1.26,0.47c0.91,0.39 1.48,0.73 2.46,0.95c2.61,0.95 4.93,1.72 7.44,2.93c0.96,0.36 1.56,0.71 2.6,0.88c2.68,0.82 5.14,1.35 6.74,3.93c-0.44,2.22 -2.03,2.87 -3.54,3.54c-7.35,3.25 -13.94,7.73 -20.62,12.78c-8.14,0.57 -15.58,-1.59 -23.47,-3.15c-1.27,-0.42 -2.14,-0.86 -3.42,-1.18c-0.59,-0.09 -0.82,-0.14 -1.39,-0.29c-3.84,-1.23 -7.57,-1.63 -11.23,-3.4c-1.05,-0.55 -1.74,-1.04 -2.83,-1.47c-0.49,-0.16 -0.68,-0.23 -1.17,-0.41c-0.86,-0.41 -1.45,-0.64 -2.25,-1.17c-0.38,-0.39 -0.5,-0.57 -0.62,-1.09c0.78,-1.95 2.3,-2.27 4.19,-2.53c0.54,0.04 0.76,0.07 1.28,0.19c0.87,0.27 1.43,0.42 2.11,-0.33c2.11,-2.73 2.88,-5.31 1.42,-8.36c-0.95,-1.97 -0.62,-3.8 1.76,-5.14c0.83,-0.46 1.4,-0.69 2.22,-1.09c0.55,-0.37 0.86,-0.59 1.37,-1.02c0.32,-0.34 0.43,-0.48 0.62,-0.87c0.11,-0.62 -0.05,-0.89 -0.66,-1.15c-0.43,-0.19 -0.61,-0.27 -1.03,-0.5c-0.42,-0.26 -0.57,-0.38 -0.94,-0.69c-0.33,-0.36 -0.45,-0.51 -0.72,-0.9c-0.33,-0.58 -0.49,-0.91 -0.75,-1.5c-0.22,-0.39 -0.33,-0.53 -0.84,-1.04c-0.57,-0.48 -0.73,-0.58 -1.17,-0.79c-4.65,-0.37 -8.89,-2.61 -13.69,-0.82c-2.02,1.09 -3.82,1.69 -6.15,1.61c-0.55,-0.24 -0.75,-0.39 -0.85,-0.88z" fill="#FCD213" id="svg_2"/>
  <path d="m793.8,383.03c11.21,18.79 22.02,37.46 30.23,57.52c19.77,48.28 27.38,98.47 24.23,150.45c-4.59,75.8 -32.06,142.23 -82.33,198.96c-41,46.26 -91.58,78.18 -150.43,96.98c-35.96,11.49 -72.8,17.09 -110.58,16.02c-80.12,-2.28 -150.88,-29.55 -212.14,-80.91c-56.51,-47.39 -93.6,-107.29 -109.77,-179.29c-19.78,-88.13 -6.89,-171.49 39.75,-249.25c2.13,-3.56 4.26,-7.13 6.41,-10.69c0.05,-0.09 0.24,-0.11 0.98,-0.4c0,1.73 0.05,3.28 -0.01,4.83c-1.04,24.14 -2.3,48.28 -1.18,72.45c2.54,54.78 17.65,105.37 50.74,150.17c4.72,2.85 7.07,7.45 10.37,11.15c1.17,1.32 2.27,2.75 3.62,4.39c0.58,0.81 0.86,1.42 1.57,2.14c0.43,0.37 0.6,0.52 1.04,0.91c0.43,0.41 0.6,0.59 1.01,1.05c0.78,1.2 1.39,2.12 0.03,3.35c-6.3,1.57 -12.26,2.88 -18.79,1.25c-13.47,-12.85 -22.58,-28.33 -31.06,-44.18c-9.45,-17.67 -15.95,-36.43 -21.37,-55.77c-9.06,-32.32 -11,-65.13 -9.72,-98.23c-12.24,30.14 -17.57,47.34 -21.01,69.35c-2.89,18.43 -4.86,36.95 -4.52,55.64c0.08,4.5 -0.12,8.98 -0.38,13.88c0.14,4.81 -0.33,9.24 0.42,14.01c2.74,24.77 6.72,48.88 14.33,72.3c13.78,42.39 34.81,80.63 64.61,113.94c8.57,9.57 17.41,18.83 27.46,27.43c6.74,7.25 14.52,12.69 22.01,18.45c5.54,4.26 11.31,8.21 17.58,12.08c27.74,18.05 57.12,31.67 88.63,40.54c28.87,8.13 58.26,11.88 88.33,11.83c41.59,-0.07 81.46,-8.17 119.85,-23.64c32.68,-13.17 62.72,-30.98 89.38,-54.16c49.87,-43.35 83.07,-97.06 99.73,-161.03c4.6,-17.64 7.18,-35.58 9.04,-54.07c2.52,-11.22 1.59,-22.16 1.35,-33.5c-1.5,-17.83 -2.05,-35.32 -5.08,-52.59c-4.23,-24.19 -10.65,-47.71 -21.51,-70.67c1.41,29.82 -0.51,58.66 -7.03,87.53c-3,8.66 -5.08,17.16 -7.14,26.06c-8.86,29.32 -22.35,55.83 -41.29,79.49c-1.03,1.29 -1.88,2.74 -3.48,4.06c-6.98,0.74 -13.56,0.63 -20.34,-1.38c-1.39,-3.11 0.86,-4.63 2.29,-6.25c11.53,-13.01 21.14,-27.32 29.65,-42.44c13.78,-24.46 22.48,-50.7 27.83,-78.13c1.33,-6.85 3.58,-13.73 4.29,-21.09c1.13,-7.1 0.58,-7.39 1.11,-21.03c0.53,-13.64 -1.04,-58.38 -2.07,-73.94c-0.15,-2.32 -0.49,-4.69 2.04,-6.46c0.45,0.01 0.47,-0.08 0.43,-0.09c0.27,0.19 0.55,0.43 0.89,0.98z" fill="#FBFCFA" id="svg_3"/>
  <path d="m749.55,113.97c5.48,-1.59 8.2,1.26 10.04,5.43c3.67,8.33 4.93,17.29 6.06,26.18c3.55,27.9 3.77,55.85 -0.75,83.66c-4.07,25.09 -11.91,48.83 -27.35,69.5c-5.04,6.74 -10.69,12.82 -19.11,15.41c-9.15,2.81 -19.42,-1.99 -23.31,-10.74c-1.41,-3.16 0.96,-2.9 2.63,-3.11c6.3,-0.75 12.48,-2.01 18.42,-4.31c6.73,-2.61 12.52,-6.73 19.09,-11.7c-19.97,2.02 -38.6,0.85 -57.78,-5.75c16.17,-13.44 33.73,-23.28 52.04,-33.95c-24.26,-0.89 -46.24,4.12 -67.94,12.64c3.47,-19.25 11.57,-37.05 20.75,-54.34c16.53,-31.15 37.5,-59.12 62.06,-84.41c1.49,-1.54 3.19,-2.89 5.15,-4.51z" fill="#FEFEFD" id="svg_4" transform="matrix(1 0 0 1 0 0)"/>
  <path d="m517.31,366.54c-23.04,8.43 -50.76,-1.1 -62.76,-21.16c-12.39,-20.7 -7.98,-48.4 10.34,-65.03c1.35,-1.23 2.69,-2.46 4.21,-3.98c4.12,-4.84 9.5,-6.69 15.38,-8.28c2.35,0.07 4.28,-0.76 6.62,-0.71c12.52,-1.99 24.79,-1.59 37.42,-0.97c-4.99,3.68 -11.3,4.82 -17.12,7.17c-17.28,6.99 -28.5,19.04 -32.34,38.82c7.54,-7.27 15.16,-12.61 24.17,-15.64c9.14,-3.08 18.29,-6.08 28.14,-5.88c1.94,0.04 2.45,0.54 2.77,2.4c1.98,11.33 3.5,22.7 4.17,34.19c0.21,3.66 -0.94,4.94 -4.65,5.16c-15.65,0.9 -30.89,-0.63 -46.42,-6.95c5.04,15.88 14.07,27.43 28.53,35.08c1.16,1.86 2.54,3.33 1.54,5.78z" fill="#168DD1" id="svg_5"/>
  <path d="m298.26,632.19c-0.82,-0.78 -1.37,-1.19 -2.07,-1.81c-0.36,-0.47 -0.58,-0.74 -0.97,-1.2c-0.17,-0.19 -0.21,-0.19 -0.2,-0.21c-0.66,-0.74 -0.89,-1.71 -1.61,-2.84c-4.24,-5.71 -6.5,-11.7 -6.2,-18.89c-0.83,-7.26 -1.45,-14.18 -0.93,-21.6c5.17,-2.47 6.27,1.82 8.49,5c7.39,5.3 15.36,8.67 23.77,11.97c7.2,2.18 13.95,4.57 20.86,6.39c1.45,0.38 2.91,0.79 4.05,2.45c-0.93,6.63 -3.57,12.33 -6.52,18.33c-2.22,1.45 -4.33,1.94 -6.48,2.03c-9.23,0.42 -18.44,1.17 -27.67,1.78c-1.5,0.1 -2.97,-0.09 -4.52,-1.4z" fill="#F9D011" id="svg_7"/>
  <path d="m268.53,500.38c0.57,7.25 7.37,8.25 11.24,11.95c3.19,3.04 8.18,3.38 11.16,7.3c-0.25,1.02 -0.83,1.33 -1.81,1.63c-18.93,-7.66 -32.91,-20.09 -40.02,-39.4c-1.8,-4.89 -2.48,-9.98 -2.19,-15.51c1.35,0.86 1.02,2.42 1.09,3.88c0.07,1.65 -0.15,3.47 2.26,3.7c1.75,0.17 3.66,0.05 4.08,-1.9c0.55,-2.61 3.02,-3.34 4.36,-5.16c1.85,-2.5 1.54,0.62 2.26,1.49c-1.54,4.37 -2.93,8.51 -3.57,13.22c-0.12,1.03 -0.37,1.67 -0.58,2.67c0.63,4.47 1.11,8.41 6.65,9.31c2.99,0.48 3.18,4.37 5.07,6.82z" fill="#F0C81E" id="svg_8"/>
  <path d="m294.04,592.11c-3.02,-1.92 -2.01,-7.45 -7.37,-6.83c-4.44,-3.61 -0.49,-6.02 1.1,-9.02c2.35,-0.67 4.31,-1.64 6.52,-1.75c5.15,-0.28 6.92,1.51 6.37,6.66c-0.12,1.18 -0.09,2.32 0.17,3.88c-0.28,3.31 -2.54,4.95 -4.56,7.15c-0.87,0.28 -1.39,0.26 -2.23,-0.09z" fill="#45A3D0" id="svg_9"/>
  <path d="m300.44,586.49c-1.2,-1.96 -1.79,-3.85 -1.11,-5.87c1.51,-4.5 -1.36,-4.73 -4.49,-4.53c-2.09,0.14 -4.08,1.55 -6.55,0.19c0.42,-1.73 0.23,-3.24 -0.66,-4.45c-1.92,-2.63 -0.2,-3.74 2.08,-5.1c0.29,-0.25 0.44,-0.15 0.44,-0.06c4.26,1.8 8.12,5.89 13.29,1.85c1.53,-1.19 3.61,-0.67 4.83,1.06c1.65,2.35 1.33,4.8 -0.57,6.79c-2.2,2.3 -4.51,4.43 -4.65,8.27c-0.17,0.59 -0.27,0.81 -0.6,1.33c-0.68,0.54 -1.15,0.65 -2.01,0.52z" fill="#5AA4C1" id="svg_10"/>
  <path d="m485.07,268.51c-5.6,1.65 -10.18,5.06 -15.51,7.5c-3.65,-0.38 -6.05,1.7 -8.91,3.83c-1.02,-4.23 3.87,-3.73 4.2,-6.69c0,-0.35 0.06,-0.26 0.02,-0.23c0.28,-0.1 0.55,-0.3 0.94,-0.76c4.82,-2.64 10.01,-3.1 15.46,-4.31c1.63,-0.42 2.79,-0.69 3.8,0.66z" fill="#E0C636" id="svg_11"/>
  <path d="m287,607.11c2.13,5.98 3.41,12.39 6.83,18.42c0.42,0.58 0.51,0.85 0.44,1.13c-0.07,0.28 -0.15,0.42 -0.54,0.61c-4.73,-5.39 -9.15,-10.97 -13.66,-16.88c2.33,-2.86 3.38,0.55 5.24,1.26c0.54,-1.65 0.98,-2.98 1.69,-4.54z" fill="#0A5491" id="svg_12"/>
  <path d="m276.19,372.15c-7.43,1.79 -15.01,2.17 -22.14,-2.64c6.41,1.05 12.8,0.91 19.53,-1.03c0.72,1.29 1.22,2.54 2.61,3.67z" fill="#2E4F68" id="svg_13"/>
  <path d="m293.88,521.31c5.06,-0.81 6.61,0.24 5.2,3.54c-1.77,-0.21 -3.35,-0.68 -5.17,-1.41c2.33,-0.62 -0.42,-1.31 -0.03,-2.13z" fill="#F0C81E" id="svg_14"/>
  <path d="m591.88,380.87c-0.89,2.56 -3.21,2.29 -6.3,3.56c2.46,-2.86 4.04,-4.71 5.93,-6.72c0.43,0.88 -0.64,1.86 0.37,3.16z" fill="#2E4F68" id="svg_15"/>
  <path d="m740.99,362.4c2.16,0.33 3.16,1.86 3.88,4.17c-2.19,0.38 -3.07,-1.28 -4.55,-2.23c0.08,-0.72 0.35,-1.19 0.67,-1.94z" fill="#A4B47E" id="svg_16"/>
  <path d="m485.4,268.91c-1.04,-1.08 -2.09,-1.01 -3.41,-1.04c2.64,-1.3 5.64,-0.95 9.04,-0.62c-1.5,0.58 -3.39,1.14 -5.63,1.66z" fill="#A4B47E" id="svg_17"/>
  <path d="m293.67,520.96c0.32,0.73 2.6,1.23 0.25,2.16c-1.94,0.33 -3.17,-0.9 -4.89,-1.51c0.28,-0.67 0.78,-1.09 1.62,-1.56c1.12,0.25 1.91,0.56 3.02,0.91z" fill="#FCD312" id="svg_18"/>
  <path d="m434.07,380.39c1.45,0.5 3.15,0.84 3.37,2.88c-2.04,0.42 -3.38,-0.89 -5.09,-1.86c0.41,-0.42 0.98,-0.59 1.72,-1.02z" fill="#A4B47E" id="svg_19"/>
  <path d="m281.72,371.04c-0.86,1.15 -2.46,0.96 -4.31,1.22c0.73,-1.56 2.39,-1.2 4.31,-1.22z" fill="#2E4F68" id="svg_20"/>
  <path d="m247.82,461.33c0.05,0.85 -0.11,2 -0.49,3.4c-0.06,-0.87 0.12,-1.99 0.49,-3.4z" fill="#F0C81E" id="svg_21"/>
  <path d="m301.9,526.37c0.4,-0.13 1.02,-0.01 1.87,0.33c-0.4,0.12 -1.03,0.02 -1.87,-0.33z" fill="#F0C81E" id="svg_22"/>
  <path d="m299.08,525.32c0.37,-0.1 0.94,0.03 1.71,0.37c-0.37,0.1 -0.94,-0.02 -1.71,-0.37z" fill="#F0C81E" id="svg_23"/>
  <path d="m465.7,272.01c0.06,0.23 -0.16,0.48 -0.63,0.84c-0.04,-0.2 0.15,-0.51 0.63,-0.84z" fill="#FCD213" id="svg_24"/>
  <path d="m793.8,383.03c-0.19,0.03 -0.5,-0.2 -0.87,-0.7c0.21,-0.04 0.49,0.2 0.87,0.7z" fill="#02497E" id="svg_25"/>
  <path d="m337.18,629.29c0.24,-6.37 2.68,-11.72 5.62,-17.28c2.09,-2.16 4.45,-1.8 6.75,-1.41c26.76,4.54 53.42,2.33 80.06,-1.11c2.81,-0.36 5.64,-0.49 8.44,-0.93c1.41,-0.23 2.88,-0.06 4.32,-0.11c-12.97,0.98 -25.97,0.42 -38.95,0.55c-15.66,0.15 -31.26,-1.23 -46.86,-2.21c-2.95,-0.19 -6.02,-0.4 -8.79,-2.68c6.75,-6.93 15.07,-11.32 23.96,-15.5c3.08,-1.92 5.85,-0.71 8.54,-0.1c16.42,3.74 33.01,6.26 49.86,5.35c7.8,-0.41 15.58,0.05 23.35,-0.54c0.99,-0.08 1.91,-0.16 2.19,0.09c-5.37,-0.04 -11.29,0.04 -17.2,-0.35c-14.6,-0.95 -29.09,-2.63 -43.52,-4.97c-2.15,-0.35 -4.29,-0.68 -6.08,-2.79c13.11,-4.38 26.78,-7.5 38.51,-15.55c17.15,-11.76 30.15,-26.81 36.88,-47.2c-0.13,-6.08 1.4,-11.59 2.06,-17.19c4.9,-41.57 -19.91,-78.35 -60.29,-89.45c-14.22,-3.9 -28.7,-5.41 -43.39,-6.14c-16.94,-0.84 -33.9,-1.24 -50.85,-1.97c-1.67,-0.07 -3.34,-0.22 -4.83,-1.82c2.45,-2.87 5.94,-2.71 9.11,-3.36c26,-5.32 52.19,-8.13 78.79,-6.73c47.7,2.5 83.38,38.5 85.21,86.34c0.35,8.98 0.53,17.96 -1.25,27.35c-0.45,2.46 -0.45,4.49 -0.83,6.84c-2.45,15.66 -7.52,30.31 -11.24,45.66c-0.29,0.97 -0.53,1.58 -0.67,2.54c-0.02,0.5 -0.03,0.7 -0.04,1.21c-0.03,0.5 -0.04,0.7 -0.1,1.2c-0.23,1.1 -0.22,1.89 0.24,2.97c0.17,0.54 0.22,0.77 0.38,1.34c2.19,5.22 6,8.29 10.72,10.39c3.04,1.35 6.15,2.58 9.26,3.75c12.3,4.63 17.42,14 18.28,26.62c1.96,28.83 -15.58,52.12 -47.26,58.72c-15.56,3.24 -31.12,2.55 -46.67,-0.14c8.65,6.28 25.47,9.62 38.77,8.26c12.45,-1.28 24.12,-4.64 35.09,-10.73c6.24,-3.47 12.68,-6.56 19.83,-8.04c8.92,-1.84 17.22,-0.2 25.31,3.38c4.11,1.82 8.1,3.9 12.06,6.05c18.61,10.12 38.18,12.02 58.56,6.76c4.55,-1.17 8.68,-3.36 12.13,-5.33c-22.08,2.82 -44.52,4.22 -65.81,-7.09c-19.76,-10.49 -31.26,-34.02 -27.09,-56.04c2.2,-11.65 8.46,-19.69 20.04,-23.24c4.31,-1.32 8.5,-2.96 12.24,-5.57c4.53,-3.15 6.51,-7.19 5.28,-12.85c-2.16,-9.95 -4.84,-19.74 -7.7,-29.49c-2.06,-7.04 -3.14,-14.28 -4.59,-21.83c0.18,-2.46 -0.57,-4.45 -0.61,-6.88c-3.06,-20.71 -1.78,-40.63 6.55,-59.61c13.75,-31.32 38.27,-48.7 71.74,-53.39c23.44,-3.29 46.84,-0.85 70.12,2.45c10.04,1.42 20.04,3.13 30.47,4.71c-0.5,0.35 -1.4,0.68 -2.51,1.23c-1.65,3.14 -4.53,3.05 -7.1,3.33c-13.4,1.45 -26.87,1.69 -40.33,2.07c-15.64,0.44 -31.29,1.06 -46.65,4.18c-28.32,5.77 -50.54,20.15 -63.07,47.06c-7.6,16.35 -8.99,33.57 -5.31,51.19c0.47,2.28 1.03,4.54 1.71,7.16c6.02,16.93 15.7,30.67 30.42,40.53c4.96,3.32 10.26,6.09 16.45,7.77c1.12,0.31 1.8,0.71 2.97,0.94c17.76,3.9 35.08,2.83 52.39,-0.31c6.06,-1.1 12.18,-2.07 18.31,-2.11c13.12,-0.1 24.7,3.39 31.94,16.18c1.4,5.2 -0.03,9.73 -1.61,14.65c-2.38,3.03 -5.51,3.77 -8.58,4.49c-25.51,5.95 -51.39,9.4 -77.49,11.54c-15.09,1.24 -30.22,1.96 -45.27,3.58c-3.89,0.42 -7.83,-0.81 -10.4,0.07c6.68,-0.12 14.66,0.04 22.61,0.54c35.86,2.27 71.21,0.01 105.68,-10.96c2.52,-0.8 5.07,-1.8 8.17,-0.74c1.6,1.76 1.1,3.38 0.42,4.88c-3.29,7.21 -7.12,14.1 -13.14,20.03c-8.2,2.67 -16.24,1.56 -24.15,1.16c-4.82,-0.25 -9.63,-0.64 -14.45,-0.65c-15.83,0 -31.68,-0.37 -47.49,0.11c-14.06,0.43 -28.08,1 -38.57,0.22c7.97,-0.11 19.46,0.71 30.95,1.63c15.42,1.24 30.82,2.69 46.25,3.66c7.64,0.48 15.25,1.39 22.92,1.36c3.33,-0.01 6.67,-0.04 10.39,0.78c1.31,0.21 2.14,0.5 3.39,0.85c0.68,0.2 0.94,0.32 1.52,0.69c1.32,4.14 -2.07,5.56 -3.94,7.78c-1.35,1.61 -2.94,3.05 -5.29,4.13c-6.32,1.23 -11.95,-0.78 -17.66,-1.62c-18.44,-2.73 -36.94,-4.3 -55.59,-4.74c-12.61,-0.31 -25.23,-0.86 -37.81,-1.91c-0.64,-0.05 -1.36,-0.01 -1.52,-0.4c1.47,0.94 3.48,0.45 5.29,0.62c21.86,2.06 43.42,6.25 65.17,9.14c25.05,3.33 50.06,6.98 74.89,11.72c0.82,0.16 1.64,0.32 2.8,0.81c0.6,0.38 0.82,0.56 1.21,1.12c0.2,2.3 -1.15,3.38 -2.43,4.41c-16.98,13.65 -35.01,25.51 -56.18,31.67c-9.61,2.8 -19.57,4.08 -29.45,5.43c-20.55,2.8 -39.35,9.32 -55.62,22.71c-15.09,12.42 -32.66,19.46 -52.22,20.21c-16.14,0.62 -31.31,-3.67 -45.13,-12.23c-5.38,-3.33 -10.62,-6.89 -15.65,-10.73c-13.56,-10.39 -29.06,-15.84 -45.73,-18.74c-14.9,-2.6 -30.09,-3.67 -44.5,-8.88c-16.64,-6.01 -31.63,-14.76 -45.16,-26.08c-1.54,-1.29 -3.07,-2.6 -3.43,-5.13c1.76,-2.94 4.55,-3.07 7.14,-3.52c30.83,-5.34 61.76,-10.09 92.67,-14.98c10.94,-1.73 21.82,-3.89 30.7,-4.33c-5.64,0.98 -13.6,1.49 -21.5,1.93c-26.1,1.46 -52.12,3.51 -77.88,8.15c-1.31,0.24 -2.64,0.34 -4.39,-0.1c-4.71,-4.8 -6.94,-10.08 -4.93,-16.86c7.02,-3.15 14.31,-2.75 21.34,-3.66c23.13,-2.99 46.18,-6.4 69.12,-10.53c6.4,-1.15 12.96,-0.92 19.68,-2.62c2.3,-0.05 4.21,-0.15 5.05,-0.2c-1.28,0.21 -3.62,-0.03 -6.36,0.45c-8.92,1.66 -17.58,1.99 -26.17,2.55c-16.57,1.07 -33.11,2.47 -49.65,3.81c-9.1,0.73 -18.22,1.22 -27.31,2.14c-2,0.2 -4.01,0.07 -6.03,-1.54z" fill="#FCFDFB" id="svg_26"/>
  <path d="m365.41,244.18c-4.49,8.48 -8.84,10.45 -17.35,7.8c-17.91,-5.58 -36.16,-8.45 -56.32,-7.67c7.33,4.19 13.58,7.73 19.81,11.32c9.96,5.74 19.58,12.02 28.99,18.61c1.16,0.82 3.23,1.35 3.06,2.96c-0.22,2.01 -2.57,1.78 -4.02,2.26c-15.89,5.21 -32.16,6.85 -48.78,4.74c-0.58,-0.07 -1.18,0 -2.38,0c11.9,10.07 25.31,14.68 40.19,15.7c-6.8,15.57 -22.14,19.04 -34.41,7.92c-13.19,-11.94 -21.15,-27.3 -26.96,-43.79c-11.03,-31.28 -13.43,-63.68 -11.67,-96.53c0.72,-13.65 2.14,-27.22 5.41,-40.53c0.63,-2.58 1.43,-5.13 2.4,-7.6c1.61,-4.1 4.51,-6.52 9.57,-6.19c2.47,0.49 4.14,1.63 5.88,3.29c17.69,15.86 31.86,34.32 45.55,53.12c15.58,21.43 28.81,44.29 39.6,68.52c0.81,1.82 1.75,3.62 1.43,6.07z" fill="#FEFEFC" id="svg_27"/>
  <path d="m306.41,405.66c20.51,0.75 40.64,1.39 60.76,2.42c18.65,0.96 37.06,3.45 54.16,11.71c38.64,18.69 56.66,60.96 43.21,102.09c-4.3,-14.87 -17.74,-22.78 -32.85,-18.95c-4.06,1.03 -7.92,2.6 -11.61,4.49c-28.49,14.56 -55.21,3.53 -72.08,-17.47c-6.72,-8.36 -11.72,-17.73 -16.09,-27.48c-4.64,-10.36 -10.19,-20.2 -17.41,-29.02c-10.53,-12.89 -23.87,-21.56 -40.1,-26.52c-0.51,-0.63 -0.41,-1.06 0.27,-1.59c10.68,-0.74 21.02,-0.56 31.74,0.32z" fill="#051E45" id="svg_28"/>
  <path d="m545.48,513.94c4.59,16.31 8.87,32.67 12.91,49.08c2.66,10.82 0.17,15.67 -9.96,20.18c-3.48,1.54 -7.09,2.81 -10.68,4.12c-8.94,3.24 -13.84,9.77 -15.87,18.9c-6.12,27.49 10.37,53.82 39,61.72c18.38,5.07 36.89,4 55.38,0.45c0.79,-0.15 1.61,-0.2 3.24,-0.39c-8.07,7.42 -17.26,10.39 -26.99,11.94c-19.26,3.05 -37.55,-0.06 -54.19,-10.25c-17.5,-10.72 -34.38,-10.73 -52.09,-0.34c-20.11,11.79 -41.84,14.53 -64.47,8.62c-6.29,-1.65 -11.95,-4.63 -17.83,-10.31c13.57,2.8 25.85,3.86 38.24,3.42c11.62,-0.42 22.69,-3.12 33.07,-8.27c20.97,-10.43 32.27,-34.96 26.86,-57.48c-2.21,-9.18 -7.5,-15.29 -16.43,-18.38c-4.7,-1.62 -9.46,-3.18 -13.66,-5.94c-3.7,-2.43 -6.9,-5.27 -7.3,-10.47c0.17,-0.56 0.27,-0.75 0.61,-1.12c1.16,-0.72 2.17,-0.91 3.48,-1.19c8.58,-5.23 17.8,-5.48 26.78,-3.72c11.1,2.17 21.88,1.98 32.98,0.12c9.36,-1.57 18.9,-1.68 26.98,5.64c1.56,-1.16 0.54,-2.5 -0.32,-3.62c-6.18,-8.13 -8.4,-17.53 -9,-27.48c-0.38,-6.46 -0.8,-12.92 -1.25,-19.84c-0.64,-2.1 -0.81,-3.73 0.51,-5.39z" fill="#061E44" id="svg_29"/>
  <path d="m365.55,244.32c-16.64,-37.16 -38.27,-71.27 -64.68,-102.38c-7.22,-8.5 -14.71,-16.76 -22.92,-24.77c-0.14,-1.12 0.28,-1.49 1.29,-1.46c12.14,6.26 21.36,15.63 30.41,25.04c19.14,19.9 37.06,40.84 51.52,64.47c4.6,7.51 8.73,15.29 9.06,24.46c0.19,5.37 -1.14,10.18 -4.68,14.64z" fill="#0A5491" id="svg_30"/>
  <path d="m347.18,603.76c20.02,2.61 39.79,3.13 59.58,3.22c14.92,0.07 29.84,0.01 44.77,0.64c-35.72,6.26 -71.5,10.83 -108.18,4.1c-8.58,-2.34 -16.87,-4.13 -25.01,-7.63c-1.27,-2.16 -1.03,-3.86 1.23,-5.13c0.59,0.04 0.77,0.03 1.2,0.11c1.02,0.6 1.92,0.35 2.99,0.72c7.85,1.47 15.45,2.74 23.42,3.97z" fill="#0C2047" id="svg_31"/>
  <path d="m311.9,488.65c1.24,1.04 2.32,1.85 3.18,2.85c1.25,1.45 2.05,3.47 1.04,5.03c-1,1.56 -3.3,0.97 -4.59,0.22c-3.62,-2.13 -4.47,0.07 -5.32,2.83c-0.55,1.79 -1.31,3.62 -3.63,3.47c-2.15,-0.14 -2.33,-2.07 -2.77,-3.65c-0.98,-3.55 -2.42,-5.97 -6.57,-3.21c-2.18,1.46 -3.52,0.76 -3.34,-1.95c0.13,-2.04 0.5,-3.96 -2.31,-4.63c-0.97,-0.22 -1.45,-1.76 -0.83,-2.55c3.66,-4.63 1.86,-10.84 4.71,-15.76c0.98,-1.7 1.32,-2.56 3.02,-0.99c1.1,1.02 2.35,1.87 3.4,2.93c1.78,1.8 3.12,1.49 4.26,-0.63c0.16,-0.29 0.41,-0.53 0.63,-0.78c1.63,-1.89 3.51,-4.35 6.07,-3.32c2.31,0.92 0.92,3.85 1.14,5.91c0.09,0.8 0.21,1.6 0.67,2.65c1.85,1.85 5.78,-0.35 5.67,3.18c-0.08,2.79 -2.97,3.56 -5.28,4.43c-0.61,0.23 -1.17,0.58 -1.48,1.47c0.41,1.27 1.36,1.68 2.33,2.5z" fill="#36A1D5" id="svg_32"/>
  <path d="m388.28,584.95c11.86,2.7 23.58,3.84 35.29,4.99c9.42,0.93 18.87,1.49 28.3,2.33c1.92,0.17 3.97,0.01 6.51,1.63c-14.47,1.01 -28.11,2.25 -41.87,1.66c-14.82,-0.63 -29.28,-3.41 -44.05,-7.01c-2.54,-0.88 -4.68,-1.64 -7.13,-2.56c-0.77,-0.49 -1.21,-0.83 -2.06,-0.96c-2.75,-0.9 -5.23,-1.79 -7.99,-2.9c-0.73,-0.62 -1.32,-0.62 -2.11,-0.9c-0.25,-0.13 -0.27,-0.17 -0.28,-0.15c-0.55,-2.13 1.3,-2.03 2.77,-2.73c1.13,0.08 1.94,0.28 3.54,0.69c10.09,2.12 19.39,4.03 29.08,5.91z" fill="#0F2649" id="svg_33"/>
  <path d="m268.83,500.41c-3.37,1.21 -3.4,-1.69 -4.07,-3.43c-0.75,-1.96 -1.34,-3.38 -3.75,-2.06c-1.52,0.83 -2.62,0.06 -3.08,-1.35c-0.97,-2.92 -3.02,-5.5 -2.72,-9.16c0.34,-1.03 1.8,-0.83 1.1,-2.26c-0.15,-5.18 0.76,-9.83 4.37,-13.62c0.33,0.12 0.35,0.37 0.47,0.39c0.37,0.63 1.06,0.57 1.59,1.19c3.01,3.62 4.23,0.37 5.87,-1.2c1.02,-0.99 1.45,-3.14 3.19,-2.71c2.04,0.51 1.36,2.77 1.66,4.27c0.45,2.22 0.96,3.94 3.58,4.7c1.69,0.49 4.42,0.79 4.36,3.35c-0.05,2.37 -2.33,3.51 -4.06,4.72c-1.19,0.83 -2.68,1.21 -4.5,1.98c2.31,2.43 5.15,4.3 5.46,7.82c0.21,2.39 0.22,4.3 -3.01,2.53c-2.88,-1.56 -4.31,-0.02 -5.31,2.88c-0.18,0.55 -0.29,0.74 -0.59,1.22c-0.19,0.28 -0.51,0.54 -0.56,0.74z" fill="#34A2D2" id="svg_34"/>
  <path d="m359.25,551.92c-1.51,3.46 -4.96,3.21 -7.52,4.24c0.78,2.32 3,0.79 3.79,2.48c1.21,2.62 4.49,4.99 2.65,8c-1.69,2.75 -4.87,0.06 -7.75,0.27c-1.43,-2.54 0.96,-3.12 2,-4.42c-6.87,-4.47 -8.9,-4.47 -11.45,0.28c-0.42,0.74 -0.75,1.11 -1.45,1.63c-0.81,0.37 -1.31,0.44 -2.2,0.32c-0.83,-0.29 -1.25,-0.57 -1.83,-1.22c-1.34,-1.98 -1.08,-4.15 -2.31,-6.2c-1.41,1.4 -0.64,3.3 -1.91,5.09c-1.36,-0.56 -2.19,-1.59 -3.04,-2.59c-2.23,-2.61 -3.12,-4.83 1.35,-6c1.77,-0.46 3.87,-1.03 1.33,-3.47c-2.08,-2 -0.98,-4.21 0,-6.39c0.87,-1.91 1.52,-3.92 2.26,-5.88c0.54,0.16 0.93,0.15 1.13,0.35c4.63,4.47 9.01,5.56 13.89,0.02c2.07,-2.35 4.21,-1.68 4.17,2.02c-0.02,1.65 0.03,3.3 0.16,5.28c-1.38,1.96 -2.99,1.53 -4.87,1.01c-1.04,-0.29 -0.02,-3.64 -2.38,-1.46c-1.13,1.04 -2.38,1.89 -1.6,3.69c0.55,1.27 0.21,2.58 0.2,4.24c4.04,-2.99 8.9,-1.75 13.52,-3.22c1.13,0.32 1.7,0.79 1.86,1.93z" fill="#36A1D5" id="svg_35"/>
  <path d="m403.79,549.44c-3.95,-4.47 2.61,-7.29 1.23,-11.09c0.44,-0.14 1.02,-0.52 1.3,-0.36c3.17,1.77 4.96,0.35 6.18,-2.54c0.06,-0.13 0.24,-0.23 0.38,-0.31c0.89,-0.55 2.69,-0.75 2.72,-0.34c0.4,5.79 6.79,1.07 7.87,4.49c0.53,1.68 0.3,3.3 2.11,4.5c1.09,0.73 0.57,2.15 -0.63,2.85c-1.06,0.62 -1.94,1.14 -1.52,2.66c1.43,5.24 -1.26,4.76 -4.2,2.68c-2.55,-1.8 -2.95,-0.87 -3.26,1.57c-0.2,1.53 -0.2,3.59 -2.63,3.48c-2.36,-0.1 -2.4,-1.94 -2.36,-3.63c0.09,-3.39 -1.79,-2.55 -3.47,-1.54c-2.59,1.56 -3.63,0.77 -3.72,-2.42z" fill="#34A2D2" id="svg_36"/>
  <path d="m464.8,564.31c2.07,-12.99 6.76,-25 9.58,-37.48c0.76,-3.36 1.71,-6.68 2.67,-10.39c2.35,-0.09 1.09,1.63 1.16,3.06c-0.05,10.17 -1.14,19.93 -2.41,29.63c-0.82,6.33 -4.13,11.85 -7.87,17.38c-0.21,0.51 -0.33,0.69 -0.75,0.89c-0.96,-0.12 -1.42,-0.54 -2.07,-1.21c-0.24,-0.2 -0.43,-0.6 -0.33,-0.81c0,-0.4 -0.09,-0.6 0.02,-1.07z" fill="#0F2649" id="svg_37"/>
  <path d="m302.32,585.28c-1.78,-3.57 -0.18,-5.96 2.08,-8.11c0.71,-0.67 1.68,-1.07 2.37,-1.76c1.64,-1.64 1.79,-3.69 0.37,-5.34c-1.59,-1.84 -3.72,-0.89 -4.6,0.7c-1.85,3.34 -3.93,1.91 -6.22,0.91c-1.63,-0.72 -2.68,-2.75 -5.23,-1.5c-1.12,0.55 -0.9,-1.64 -0.97,-3.06c1.78,-0.82 3.54,-1.29 5.64,-1.81c4.29,-0.08 8.19,0.25 12.12,0.76c2.78,0.35 4.53,1.59 6.48,3.3c0.33,-0.21 0.38,-0.07 0.34,-0.01c-0.47,0.62 -0.4,1.09 0.53,1.21c0.34,-0.27 0.46,-0.28 0.52,-0.25c0.5,2.96 0.43,5.51 -3.35,6.22c-1.62,0.31 -2.59,1.72 -2.19,3.33c0.61,2.51 2.43,5.29 -0.33,7.2c-2.49,1.72 -4.84,-0.84 -7.56,-1.79z" fill="#45A3D0" id="svg_38"/>
  <path d="m552.81,372.86c1.37,-0.88 2.06,-2.87 3.43,-2.16c1.61,0.83 0.55,2.66 0.34,4.01c-1.72,10.68 -5.55,20.76 -9.47,30.86c0.62,-11.01 -0.97,-22.36 5.7,-32.71z" fill="#55A2BF" id="svg_39"/>
  <path d="m471.89,430.95c0.36,3.16 0.69,5.89 1.02,8.61c-5.07,-10.03 -9.64,-20.15 -10.39,-31.86c5.81,2.81 7.53,7.22 9.37,23.25z" fill="#55A2BF" id="svg_40"/>
  <path d="m357.29,550.77c-5.85,2.32 -11.54,3.52 -17.76,3.84c2.41,-1.93 5.15,-3.29 1.63,-6.36c-1.29,-1.11 -0.19,-2.38 1.1,-3.11c1.28,-0.73 2.52,-1.57 3.87,-2.15c1.08,-0.47 2.03,-2.46 3.33,-1.06c1.44,1.54 -0.32,2.56 -1.63,3.86c1.59,0.09 2.83,0.15 4.43,0.24c1.71,0.24 3.07,0.46 4.7,0.88c-0.04,1.4 2.29,2.3 0.33,3.86z" fill="#45A3D0" id="svg_41"/>
  <path d="m461.91,373.06c2.5,0.9 3.45,3.03 4.37,5.15c2.52,5.79 4.82,19.41 3.85,26.48c-3,-8.33 -5.99,-16.66 -9,-25.37c0.09,-2.28 -0.06,-4.2 0.78,-6.26z" fill="#55A2BF" id="svg_42"/>
  <path d="m549.76,434.36c0.21,-0.39 0.26,-0.85 0.3,-1.08c0.87,-1.98 0.22,-3.85 0.63,-6.02c1.45,-5.97 1.47,-11.92 4.61,-17.03c0.57,-0.94 0.84,-2.56 2.22,-2.34c1.79,0.29 1.35,2.08 1.31,3.27c-0.31,7.74 -3.27,14.74 -6.21,21.74c-0.31,0.73 -0.42,1.55 -0.69,2.7c-0.2,0.56 -0.32,0.74 -0.49,1.26c-0.04,0.34 -0.22,0.78 -0.32,1c-2.52,-0.04 -1.28,-1.91 -1.36,-3.5z" fill="#45A3D0" id="svg_43"/>
  <path d="m533.65,396.42c2.35,5.7 1.82,11.09 0.6,16.54c-1.04,4.63 -1.89,9.3 -3.97,13.88c0,-3.49 -0.17,-6.99 0.04,-10.46c0.4,-6.63 1.71,-13.21 0.89,-19.9c-0.09,-0.75 -0.41,-1.83 0.72,-2.03c1.01,-0.17 1.2,0.91 1.72,1.97z" fill="#5AA4C1" id="svg_44"/>
  <path d="m487.02,411.03c-0.99,-6.31 -2.75,-12.3 2.57,-18.39c0.65,11.63 1.25,22.28 1.85,32.92c-2.86,-4.35 -3.25,-9.32 -4.42,-14.53z" fill="#55A2BF" id="svg_45"/>
  <path d="m340.12,563.3c-0.26,-3.99 -0.31,-6.6 5.19,-5.79c3.42,0.5 5.62,2.86 8.77,3.37c0.99,0.16 1.93,1.45 1.64,2.76c-0.38,1.72 -1.68,1.18 -2.79,0.87c-1.57,-0.45 -1.97,0.78 -2.73,2.02c-0.29,0.39 -0.43,0.5 -0.82,0.66c-4.57,2.82 -4.57,2.82 -9.26,-3.89z" fill="#45A3D0" id="svg_46"/>
  <path d="m319.66,598.82c-1.1,1.28 -0.41,3.19 -1.5,4.78c-8.72,-2.17 -16.24,-6.83 -24.15,-11.48c0.27,-0.26 0.83,-0.29 1.8,-0.32c2.34,-1.5 4.05,-1.04 5.87,0.91c0.22,0.36 0.25,0.33 0.26,0.35c0.76,0.63 1.71,0.35 2.81,0.76c0.25,0.21 0.24,0.17 0.23,0.19c0.71,0.7 1.65,0.4 2.76,0.77c4.05,1.41 7.83,2.63 11.92,4.04z" fill="#1C2D47" id="svg_47"/>
  <path d="m301.98,585.38c1.19,-0.34 2.35,-0.23 3.51,-0.29c1.46,-0.07 2.56,2.4 3.95,0.94c1.26,-1.33 0.45,-3.15 -0.28,-4.66c-1.54,-3.18 0.35,-5.45 2.77,-6.12c2.53,-0.7 3.07,-2.06 3.66,-4.49c1.23,0.72 4.84,-0.33 2.92,3.2c-0.63,0.27 -0.95,0.5 -1.3,1.1c-0.1,0.59 -0.24,0.82 -0.7,1.02c-0.79,0.26 -1.4,0.41 -2.26,0.74c-2.5,0.68 -4.52,1.11 -2.54,4.22c2.16,3.39 1.1,6.65 -1.33,9.93c-0.97,0.69 -1.74,0.81 -2.87,0.24c-0.33,-0.23 -0.38,-0.31 -0.43,-0.3c-1.97,-0.86 -3.58,-2.16 -5.07,-4.11c-0.13,-0.55 -0.1,-0.8 -0.03,-1.42z" fill="#36A1D5" id="svg_48"/>
  <path d="m336.79,564.18c0.72,0 1.12,-0.01 1.81,-0.02c4.41,1.17 4.5,5.78 7.32,8.45c0.08,0.78 0.11,1.22 0.15,1.99c-2.32,2.26 -4.16,0.09 -6.22,-0.38c-1.74,-0.4 -3.24,-1.47 -5.37,-1.5c-3.97,-1.66 -3.89,-5.17 -4.15,-8.87c0.28,-0.38 0.46,-0.36 0.87,-0.22c0.5,0.33 0.76,0.54 1.23,0.87c0.52,0.25 0.84,0.3 1.44,0.21c1.04,-0.26 1.81,-0.47 2.92,-0.53z" fill="#E0C636" id="svg_49"/>
  <path d="m334.49,572.95c3.83,-1.88 7,1.81 11.21,1.99c3.45,1 6.51,2.01 9.93,3.15c-0.56,0.93 -1.46,1.73 -2.57,2.76c-6.65,-1.45 -12.11,-5.36 -18.57,-7.9z" fill="#1C2D47" id="svg_50"/>
  <path d="m308.43,487.15c-3.42,-1.35 -1.94,-2.3 -0.1,-3.07c2.51,-1.06 5.48,-1.31 7.08,-4.06c-1.23,-1.57 -2.21,-0.47 -3.44,-0.1c-2.94,0.9 -0.98,-1.15 -0.99,-2.29c2.74,-0.59 6.66,-1.6 7.39,1.28c0.88,3.42 -2.76,5.38 -6.04,7.02c-1.22,1.01 -2.21,1.66 -3.9,1.22z" fill="#219EE3" id="svg_51"/>
  <path d="m301.55,586.53c2.77,0.16 4.26,1.66 5.38,4.08c-1.44,0.86 -2.99,1.41 -4.78,2.21c-1.9,-0.16 -3.55,-0.57 -5.56,-0.99c-1.34,-3.12 2,-3.29 3.26,-5.25c0.62,-0.15 1.01,-0.08 1.7,-0.05z" fill="#E0C636" id="svg_52"/>
  <path d="m346.18,572.69c-4.14,-1.07 -4.57,-5.32 -7.13,-8.22c0.07,-0.6 0.29,-0.89 0.73,-1.34c3.48,0.16 3.96,3.01 4.65,4.89c2.49,1.28 1.62,-4.52 4.62,-1.08c-0.84,2.04 -1.76,3.76 -2.87,5.75z" fill="#2BA5E5" id="svg_53"/>
  <path d="m314.63,568.93c-5.77,-2.19 -12.13,-1.7 -18.33,-3.4c4.98,-3.11 10.15,-0.08 15.56,-0.01c0.37,0.59 0.58,0.9 1.13,1.25c0.27,0.07 0.17,0.08 0.18,0.03c0.04,0.3 0.18,0.59 0.61,1.01c0.45,0.36 0.66,0.6 0.85,1.12z" fill="#36A1D5" id="svg_54"/>
  <path d="m517.44,366.86c-0.72,-1.69 -1.07,-3.39 -1.43,-5.47c2.66,0.33 5.3,1.12 7.8,2.71c-1.81,1.9 -4.15,1.79 -6.37,2.76z" fill="#449AC5" id="svg_55"/>
  <path d="m462.14,372.88c0.96,1.97 0.29,3.79 -0.8,5.83c-0.59,-0.86 -0.95,-1.95 -1.32,-3.39c-0.15,-0.45 -0.29,-0.55 -0.31,-0.88c-0.08,-0.71 -0.27,-1.18 -0.46,-2.03c0.99,-1.29 1.68,-0.65 2.65,0.27c0.28,0.21 0.22,0.23 0.24,0.2z" fill="#45A3D0" id="svg_58"/>
  <path d="m357.28,551.05c0.32,-1.08 0.18,-2.17 -0.05,-3.6c0.55,-0.32 1.1,-0.3 1.88,-0.12c0.51,0.19 0.79,0.23 1.44,0.48c2.2,2.22 -0.06,3 -1.14,4.35c-0.79,-0.27 -1.3,-0.66 -2.13,-1.11z" fill="#2A9FDD" id="svg_59"/>
  <path d="m549.77,434.27c0.37,0.9 0.55,2.11 0.99,3.56c0.21,1.71 0.18,3.19 -1.85,3.9c-1.14,-2.6 0.42,-4.84 0.86,-7.46z" fill="#A4B47E" id="svg_60"/>
  <path d="m545.97,513.52c-1.55,1.54 -0.62,3.19 -0.96,4.98c-1.22,-2.99 -0.82,-6.46 -0.73,-10.37c0.65,1.36 1.21,3.2 1.69,5.39z" fill="#A4B47E" id="svg_61"/>
  <path d="m478.1,519.48c-0.24,-0.73 -0.38,-1.82 -0.73,-3.16c0.19,-2.12 0.6,-3.98 1.19,-6.05c0.01,2.81 -0.18,5.83 -0.46,9.21z" fill="#2E4F68" id="svg_63"/>
  <path d="m279.39,115.61c-0.3,0.47 -0.74,0.68 -1.36,1.06c-1.55,-0.89 -2.93,-1.94 -4.49,-3.22c2.12,-0.46 3.95,0.63 5.85,2.16z" fill="#2E4F68" id="svg_64"/>
  <path d="m274.6,405.11c0.16,0.48 -0.08,0.88 -0.43,1.47c-1.85,-0.14 -3.59,-0.49 -5.61,-0.9c1.99,-1.1 3.86,-0.51 6.04,-0.57z" fill="#1C2D47" id="svg_66"/>
  <path d="m308.21,487.36c0.96,-0.67 2.04,-1.01 3.46,-1.31c0.35,0.71 0.35,1.39 0.42,2.41c-1.25,0.12 -2.75,0.5 -3.88,-1.1z" fill="#A4B47E" id="svg_67"/>
  <path d="m466.55,566.89c0.43,-0.03 0.85,-0.02 1.07,-0.03c0.46,0.3 0.71,0.61 1.21,1.09c-0.3,1.32 -1.16,2.08 -2.66,2.18c-0.99,-1.2 -1,-2.23 0.38,-3.24z" fill="#CAB42E" id="svg_69"/>
  <path d="m550.63,427.22c0.1,1.51 -0.01,3.34 -0.33,5.51c-0.53,-1.54 -0.4,-3.37 0.33,-5.51z" fill="#A4B47E" id="svg_70"/>
  <path d="m307.25,591.25c0.67,-0.2 1.4,-0.12 2.52,-0.02c0.18,0.63 0.12,1.64 -0.25,1.77c-1.17,0.41 -1.6,-0.74 -2.27,-1.75z" fill="#CAB42E" id="svg_71"/>
  <path d="m462.08,372.63c-0.67,0.01 -1.45,-0.25 -2.53,-0.55c0.95,-2.75 1.54,-0.02 2.53,0.55z" fill="#55A2BF" id="svg_72"/>
  <path d="m363.2,585.21c0.58,-1.07 1.23,-1.03 1.76,0.36c-0.48,0.12 -1.01,-0.03 -1.76,-0.36z" fill="#1C2D47" id="svg_73"/>
  <path d="m304.78,593.78c-0.65,0.1 -1.52,-0.05 -2.61,-0.45c0.65,-0.11 1.52,0.04 2.61,0.45z" fill="#E0C636" id="svg_74"/>
  <path d="m307.78,594.73c-0.63,0.09 -1.5,-0.06 -2.59,-0.46c0.63,-0.09 1.49,0.06 2.59,0.46z" fill="#E0C636" id="svg_75"/>
  <path d="m785.65,328.91c0.1,0.67 -0.02,1.61 -0.39,2.82c-0.11,-0.67 0.03,-1.6 0.39,-2.82z" fill="#034C82" id="svg_76"/>
  <path d="m323.74,599.82c-0.56,0.04 -1.4,-0.09 -2.47,-0.44c0.58,-0.06 1.39,0.1 2.47,0.44z" fill="#1C2D47" id="svg_77"/>
  <path d="m314.35,577.08c0.22,-0.35 0.76,-0.66 1.63,-0.96c-0.21,0.34 -0.75,0.67 -1.63,0.96z" fill="#45A3D0" id="svg_78"/>
  <path d="m253.77,369.35c-0.62,-0.07 -1.33,-0.11 -1.21,-0.95c0.01,-0.04 0.79,0.03 1.34,0.31c0.12,0.26 -0.05,0.51 -0.13,0.64z" fill="#2E4F68" id="svg_79"/>
  <path d="m353.1,581.34c0.38,-0.11 0.94,0.02 1.69,0.36c-0.37,0.11 -0.95,-0.01 -1.69,-0.36z" fill="#1C2D47" id="svg_80"/>
  <path d="m262.78,470.1c-0.39,-0.02 -0.86,-0.33 -1.42,-0.89c0.39,0.02 0.86,0.31 1.42,0.89z" fill="#F0C81E" id="svg_81"/>
  <path d="m330.91,563.29c0.17,0.45 -0.15,0.31 -0.31,0.23c-0.16,-0.07 -0.05,-0.4 0.05,-0.54c0.1,-0.14 0.09,-0.15 0.26,0.31z" fill="#45A3D0" id="svg_82"/>
  <path d="m315.51,570.08c-0.29,0.13 -0.63,0.04 -0.91,-0.35c0.41,-0.32 0.68,-0.17 0.91,0.35z" fill="#36A1D5" id="svg_83"/>
  <path d="m269.38,499.8c-0.24,-0.2 -0.15,-0.51 0.32,-0.88c0.2,0.21 0.08,0.49 -0.32,0.88z" fill="#F0C81E" id="svg_84"/>
  <path d="m313.95,567.72c-0.22,0.03 -0.44,-0.22 -0.72,-0.72c0.21,-0.02 0.46,0.22 0.72,0.72z" fill="#45A3D0" id="svg_85"/>
  <path d="m360.8,547.8c-0.15,0.16 -0.43,0.1 -1.08,-0.14c0.07,-0.14 0.51,-0.11 1.08,0.14z" fill="#45A3D0" id="svg_86"/>
  <path d="m317.39,575.22c-0.07,-0.21 0.13,-0.54 0.6,-1c0.07,0.2 -0.13,0.54 -0.6,1z" fill="#45A3D0" id="svg_87"/>
  <path d="m551.59,437.05c-0.37,-0.18 -0.34,-0.49 0.08,-0.93c0.34,0.18 0.32,0.49 -0.08,0.93z" fill="#A4B47E" id="svg_88"/>
  <path d="m459.77,374.34c0.16,0.01 0.23,0.18 0.24,0.5c-0.19,0.02 -0.29,-0.14 -0.24,-0.5z" fill="#55A2BF" id="svg_89"/>
  <path d="m359.74,579.14c0.09,0.35 -0.1,0.54 -0.55,0.77c-0.21,0.07 -0.2,-0.37 -0.2,-0.59c0.18,-0.24 0.35,-0.26 0.75,-0.18z" fill="#1C2D47" id="svg_90"/>
  <path d="m313.18,566.56c-0.23,0.09 -0.54,-0.11 -0.97,-0.56c0.22,-0.08 0.55,0.1 0.97,0.56z" fill="#45A3D0" id="svg_91"/>
  <path d="m315.41,668.27c17.99,15.7 37.51,27.88 60.62,33.08c12.32,2.77 24.9,4.4 37.38,6.47c15.92,2.65 30.19,8.97 43.02,18.76c12.12,9.25 24.85,17.36 40.16,20.36c23.75,4.66 45.36,-0.64 64.79,-14.58c14.41,-10.34 28.74,-20.57 46.71,-23.8c9.33,-1.67 18.63,-3.61 28.02,-4.85c24.76,-3.27 45.65,-14.85 65.12,-29.63c2.92,-2.21 5.79,-4.48 8.93,-6.9c6.33,-1.79 12.01,-0.39 17.84,2.36c1.33,3.5 -1.4,4.28 -3.23,5.41c-9.18,5.71 -18.28,11.52 -26.7,18.34c-5.23,4.23 -9.59,9.22 -13.08,14.93c-10.57,17.27 1.13,38.98 21.45,40.09c11.93,0.64 22,-4.31 31.78,-10.18c5.57,-3.34 10.42,-7.69 15.85,-11.88c8.12,-6.63 15.36,-13.68 22.01,-21.26c4.79,-5.47 9.77,-10.81 14.13,-16.67c1.71,-2.31 3.05,-4.79 4.04,-7.41c2.43,-6.4 0.4,-11.8 -5.16,-16.01c-9.1,-6.88 -19.03,-6.86 -29.32,-3.96c-7.17,2.03 -14.25,4.39 -21.48,7.43c-5.94,-0.09 -10.6,-3.36 -16.25,-4.58c-1.38,-0.44 -2.4,-0.71 -3.33,-1.9c-0.64,-2.18 0.22,-3.72 1.49,-4.71c7.41,-5.77 12.8,-13.61 20.46,-19.69c10.87,-2.07 21.46,-2.55 32.08,-2.25c2.81,0.08 5.65,0.07 8.86,0.44c2.63,0.85 3.53,2.98 4.96,4.56c5.39,5.92 12.81,7.12 19.9,3.19c6.8,-3.78 9.54,-10.67 7.31,-18.38c-1.78,-6.14 -8.8,-10.62 -16.05,-10.24c-8.06,0.42 -13.54,5.22 -14.82,12.95c-0.4,2.41 0.07,5.08 -2.45,7.18c-4.96,1.24 -9.52,0 -14.08,-0.12c-4.57,-0.12 -9.13,-0.95 -13.74,-0.89c-1.65,0.02 -3.27,-0.36 -4.73,-2.01c0.22,-3.48 2.74,-5.2 4.42,-7.35c17.4,-22.26 29.48,-47.24 38.43,-74.26c2.1,-3.38 4.7,-3.07 7.82,-1.62c3.21,1.94 6.68,2.7 9.03,0.42c2.27,-2.21 4.79,-5.21 3.13,-9.19c-0.19,-0.44 -0.24,-0.96 -0.24,-1.45c-0.04,-6.33 0.68,-6.98 -8.07,-9.15c-2.5,-1.06 -5.49,-1.22 -4.75,-5.22c2.77,-14.61 5.13,-28.84 6.52,-43.25c1.54,-15.96 0.93,-31.91 0.7,-47.87c-0.01,-0.81 0,-1.62 0.57,-2.55c20.63,39.77 28.01,82.6 29.06,127.32c-0.01,5.79 0.04,11.16 -0.28,16.87c-3.79,1.24 -5,-1.92 -6.86,-3.78c-6.78,-6.75 -16.99,-8.08 -24.65,-3.06c-8.77,5.75 -10.87,17.14 -4.75,25.81c6.04,8.56 18.11,10.24 26.53,3.74c2.36,-1.83 4.06,-4.46 7.32,-5.68c0.93,0.04 1.33,0.33 1.54,1.21c-5,64.09 -27.03,121.34 -66.57,171.38c-50.39,63.77 -116.32,102.85 -196.01,117.56c-84.15,15.54 -162.45,-0.88 -234.67,-47.38c-0.51,-3.76 1.62,-5.62 4.43,-6.77c1.34,-0.54 2.7,-1.03 4.38,-1.81c2.01,-0.59 3.68,-0.67 5.32,-0.43c15.44,2.22 29.99,-0.92 44.39,-7.37c11.1,-4.79 18.79,-12.95 25.22,-22.3c6.75,-9.82 10.3,-21.04 13.01,-32.55c1.37,-5.86 0.93,-11.51 -1.55,-16.94c-2.19,-4.8 -6.15,-7.29 -11.32,-7.72c-5.36,-0.45 -10.2,0.52 -13.55,5.42c-4.02,5.89 -5.38,12.36 -5.02,19.39c0.12,2.35 1.06,5.72 -1.82,6.66c-2.79,0.92 -4.55,-1.8 -6.31,-3.9c-4.26,-5.11 -4.42,-11.67 -6.48,-17.54c-0.89,-2.56 0.86,-4.65 3.12,-6.23c4.52,-3.18 6.45,-9.14 4.7,-13.89c-2.41,-6.57 -7.01,-9.44 -14.33,-8.95c-5.33,0.36 -10.71,4.95 -11.7,9.99c-0.88,4.48 1.59,11.38 6.1,13.23c5.2,2.13 6.77,5.84 7.57,11.02c0.74,2.46 1.38,4.57 -0.53,6.77c-1.82,0.86 -3.27,0.55 -4.65,-0.09c-8.03,-3.73 -15.79,-2.63 -23.73,1.43c-6.11,3.48 -9.47,8.32 -9.77,15.11c-0.06,1.31 -0.25,2.61 -1.33,3.98c-0.5,0.35 -0.73,0.45 -1.33,0.57c-7.05,-2.56 -13.1,-6.39 -19.46,-9.6c-2.36,-1.19 -3.51,-3.47 -4.39,-5.85c-1.27,-3.46 -3.56,-5.93 -6.93,-7.43c-5.9,-2.64 -12.5,-1.12 -16.11,3.75c-3.52,4.74 -2.98,11.53 1.26,15.98c4.41,4.63 10.87,5.61 16.28,1.86c3.47,-2.41 6.58,-2.62 10.19,-0.76c3.98,2.04 8.33,3.35 12.23,6.3c1.19,1.82 2.43,3 4.64,3.45c0.48,0.35 0.65,0.53 0.97,1.04c0.34,1.09 0.26,1.83 -0.32,2.83c-0.71,0.54 -1.2,0.67 -2.1,0.65c-4.05,-1.9 -7.89,-1.34 -12.07,-0.79c-0.81,0.15 -1.27,0.19 -2.07,0.21c-1.19,-0.01 -2.04,-0.07 -3.18,0.36c-6.75,2.26 -9.29,7.26 -10.32,13.83c-2.83,2.51 -5.33,1.57 -7.72,-0.07c-1.45,-1 -2.77,-2.2 -4.82,-3c-24.31,-20.69 -44.27,-44.66 -60.82,-71.44c-22.77,-36.83 -37.27,-76.78 -43.91,-119.56c-1.17,-7.56 -1.73,-15.21 -2.62,-23.3c0.2,-0.53 0.43,-0.58 1.02,-0.58c3.65,2.3 4.35,7.08 8.85,8.63c9.58,5.27 17.95,4.14 24.61,-3.11c5.58,-6.08 6.14,-15.59 1.33,-22.55c-5.02,-7.25 -14.05,-9.6 -23.09,-5.98c-2.96,1.18 -5.57,2.9 -7.97,5.54c-1.28,1.18 -2.32,2.11 -3.6,3.29c-0.52,0.25 -0.74,0.32 -1.32,0.34c-3.45,-48.97 8.8,-111.61 28.53,-146.11c0,5.54 0.17,10.25 -0.03,14.95c-1.61,37.88 3.81,74.77 16.16,110.54c9.81,28.43 24.5,54.25 44.05,77.62c-4.07,3.73 -9.26,2.92 -14.08,3.38c-6.28,0.6 -12.58,-0.52 -19.28,-0.62c-2.94,-0.81 -2.88,-2.83 -2.94,-4.89c-0.2,-7.7 -5.1,-13.77 -12.67,-15.78c-5.81,-1.55 -13.43,1.85 -17.1,7.63c-3.65,5.74 -1.85,13.73 4.32,19.21c5.56,4.95 13.48,5.21 19.21,0.78c2.53,-1.96 3.94,-4.93 6.87,-6.95c14.5,0.49 28.54,2.13 43.03,3.31c6.78,6.92 13.2,13.67 20.35,19.7c1.01,0.84 1.62,2.06 1.65,3.84c-3.87,4.65 -9.38,4.85 -14.73,6.37c-8.38,-1.1 -15.48,-5.01 -23.08,-7.42c-9.05,-2.87 -17.91,-4.59 -27.24,-1.06c-12.11,4.57 -15.95,14.89 -8.47,25.32c15.85,22.09 34.76,41.1 58.28,55.09c7.62,4.54 15.92,7.17 24.95,7.98c15.9,1.42 35.29,-16.11 24.82,-37.86c-3.62,-7.53 -9.74,-12.94 -15.87,-18.31c-6.91,-6.04 -14.62,-10.92 -22.47,-15.6c-1.81,-1.08 -3.91,-2.06 -3.92,-5.01c4.74,-3.51 9.76,-4.63 15.57,-3.38z" fill="#FCD213" id="svg_92" transform="matrix(1 0 0 1 0 0)"/>
  <path d="m709.77,596.12c0.5,-4.48 1.18,-8.64 1.88,-13.18c-2.13,-5.8 -0.24,-11.49 -1.09,-17.1c-1.61,-10.69 -4.76,-20.66 -10.35,-29.9c-3.26,-5.4 -6.88,-10.59 -9.76,-16.21c-1.12,-2.19 -2.6,-4.31 -1.93,-7.35c2.46,-1.43 3.95,0.23 5.55,1.27c16.76,10.99 33.67,10.08 50.71,0.69c2.57,-1.42 4.68,-3.79 8.28,-3.74c6.72,2.69 14.51,1.71 19.22,8.39c1.56,2.23 3.41,0.16 4.26,-1.36c4.28,-7.69 8,-15.57 9.53,-24.4c1.3,-7.49 2.4,-14.97 2.96,-22.55c0.07,-1 0.14,-2.25 1.4,-2.25c1.62,0.01 1.55,1.47 1.53,2.6c-0.04,4.1 -1.88,8.11 -0.37,12.61c-6.33,54.17 -25.17,102.73 -61.57,143.72c-0.77,0.86 -1.67,1.61 -2.83,2.53c-1.68,2.51 -3.99,3.06 -6.35,2.74c-7.3,-1 -14.63,-0.39 -21.93,-0.67c-2.43,-0.09 -5.14,0.14 -6.12,-3.31c4.92,-7.71 9.77,-14.9 13.76,-23.07c-0.1,-3.05 2.17,-3.59 3.89,-4.25c11.32,-4.4 22.13,-9.9 32.95,-15.37c-8.52,4.49 -17.56,7.63 -26.74,10.4c-2.2,0.66 -4.46,1.58 -6.88,-0.24z" fill="#014D84" id="svg_93" transform="matrix(1 0 0 1 0 0)"/>
  <path d="m692.61,628.43c0.74,0.27 1.1,1.2 1.49,1.21c10.67,0.25 21.34,0.4 32.39,0.47c6.95,1.81 13.74,1.14 20.83,1.49c11.25,0.75 22.1,1.62 33.39,2.46c2.02,-0.7 3.51,-0.51 4.18,1.1c0.54,1.32 -0.8,1.47 -2.07,1.46c-14.26,0.49 -28.18,1.22 -42.51,2.07c-2.11,1.57 -4.13,2.29 -6.32,2.24c-6.45,-0.13 -12.77,1.36 -19.67,1.26c-7.74,-0.35 -15.02,-0.07 -22.29,-0.18c-2.47,-0.04 -5,0.21 -7.5,-1.69c-0.53,-0.45 -0.76,-0.53 -1.34,-0.72c-1.01,-0.09 -1.68,-0.1 -2.67,-0.19c-24.61,-0.65 -48.78,-2.97 -72.98,-4.81c-15.25,-1.16 -30.48,-2.55 -45.75,-4.39c4.33,-0.38 8.65,-0.96 12.99,-1.09c38.25,-1.2 76.5,-1.8 114.74,0.39c1.06,0.06 1.96,-0.1 3.09,-1.08z" fill="#0C2044" id="svg_94"/>
  <path d="m286.98,640.43c-14.95,-0.94 -29.42,-2.29 -44.23,-4.22c-1.04,0.19 -1.69,0.13 -1.7,-0.67c-0.01,-0.93 0.8,-1.21 2,-1.34c11.75,0.23 23.06,-0.29 34.83,-1.27c6.76,0.46 12.98,-0.51 19.66,-1.03c13.15,-0.95 25.85,-1.82 38.95,-2.83c15.63,-1.18 30.88,-2 46.09,-3.31c19.03,-1.65 38.06,-3.09 57.14,-3.95c2.16,-0.1 4.31,-0.36 6.87,-0.52c1.16,0.29 2.11,0.07 2.48,1.27c-36.69,7.06 -73.39,13.15 -110.95,16.65c-1.71,1.56 -3.34,2.5 -5.2,2.48c-7.43,-0.1 -14.76,1.95 -22.68,0.97c-8.03,0.57 -15.58,0.84 -23.26,-2.23z" fill="#0D2243" id="svg_95"/>
  <path d="m296.82,804.43c2.29,-0.65 4.15,0.66 6.14,1.83c1.64,0.96 3.46,1.97 5.84,0.84c2.15,-0.46 2.97,0.95 3.91,2.03c6.84,7.82 16.02,11.34 25.64,14.08c2.34,0.67 4.97,0.65 6.68,3.2c-2.8,2.73 -7.01,3.33 -8.9,7.45c-14.21,-8.16 -26.96,-18.27 -39.31,-29.43z" fill="#F0C81E" id="svg_96"/>
  <path d="m797.56,524.01c0.01,3.19 2.84,2.72 5.2,3.49c-2.7,2.45 -4.61,5.36 -5.22,9.43c-0.23,2.37 -0.74,4.35 -1.03,6.68c-0.01,0.5 -0.01,0.7 0.05,1.17c0.35,0.84 0.9,0.9 1.79,1c2.31,1.67 2.28,3.4 0.28,5.32c-1.87,-3.49 -4.5,-2.1 -7.32,-1.26c1.77,-8.4 3.9,-16.96 6.25,-25.83z" fill="#E0C636" id="svg_97"/>
  <path d="m832.87,575.26c2.11,-5.55 0.51,-11.03 1.43,-16.72c1,11.12 -0.14,22.55 -0.8,34.35c-0.45,0.05 -0.72,-0.25 -1.23,-0.73c-1.94,-5.71 0.22,-11.13 0.6,-16.9z" fill="#E0C636" id="svg_98"/>
  <path d="m189.08,575.91c0.22,-0.48 0.37,-0.55 0.76,-0.7c2.89,4.38 1.17,9.3 1.5,14.34c-0.5,0.3 -0.74,0.23 -1.34,0.04c-1.3,-4.46 -0.85,-8.88 -0.92,-13.68z" fill="#A4B47E" id="svg_100"/>
  <path d="m293.48,627.68c0.07,-0.57 0.21,-0.93 0.42,-1.56c0.51,0.54 0.95,1.36 1.25,2.51c-0.61,-0.02 -1.11,-0.38 -1.67,-0.95z" fill="#A4B47E" id="svg_101"/>
  <path d="m295.06,629.28c0.29,-0.09 0.59,0.1 0.93,0.6c-0.27,0.1 -0.59,-0.11 -0.93,-0.6z" fill="#A4B47E" id="svg_102"/>
  <path d="m559.38,519.93c-9.77,-28.77 -4.98,-55.03 13.68,-78.39c15.2,-19.03 36.17,-28.11 59.79,-31.53c22.8,-3.3 45.83,-3.01 68.78,-3.92c6.13,-0.24 12.17,-0.93 18.53,-2.39c5.85,2.22 11.56,1.08 17.16,1.25c5.45,0.16 10.91,0.03 16.45,0.37c-7.19,2.44 -14.52,4.43 -20.62,9.69c-3.41,3.71 -7.57,6 -11.36,9.32c-12.26,10.98 -21.14,23.93 -27.2,38.82c-5.57,13.66 -12.33,26.61 -22.29,37.66c-12.07,13.38 -26.96,21.18 -45.13,21.49c-9.42,0.16 -18.51,-2.1 -27.17,-6.97c-6.18,-2.93 -11.94,-5.89 -18.48,-6.87c-7.5,-1.13 -13.35,1.31 -17.74,7.46c-1.14,1.59 -1.97,3.53 -4.4,4.01z" fill="#051E43" id="svg_103"/>
  <path d="m720.6,423.65c3.82,-3.31 7.05,-6.86 12.07,-8.31c7.83,3.14 15.55,5.8 21.72,11.43c22.91,20.9 23.92,58.35 2.14,80.47c-0.93,0.95 -1.8,1.95 -2.9,3.22c-10,7.41 -20.39,12.68 -32.98,12.81c-12.15,0.12 -22.83,-3.15 -32.13,-11.72c-9.12,-5.18 -9.59,-20.15 -1.2,-27.29c2.55,-2.16 5.45,-3.86 8.41,-5.36c9.7,-4.93 15.15,-13.18 18.47,-23.16c2.86,-8.59 3.75,-17.55 4.88,-26.46c0.23,-1.83 0.46,-3.64 1.52,-5.63z" fill="#219DE1" id="svg_104"/>
  <path d="m256.05,482.18c1.47,-0.02 3.88,-2.25 4.06,0.42c0.15,2.1 -2.52,1.28 -4.41,1.44c-0.16,-0.53 0.05,-1.06 0.35,-1.86z" fill="#5AA4C1" id="svg_105"/>
  <path d="m720.53,423.48c-0.27,16.26 -1.99,32.42 -11.54,46.56c-3.65,5.41 -9.17,8.53 -14.72,11.66c-12.6,7.11 -14.64,14.57 -7.66,27.15c0.4,0.73 0.81,1.45 1.39,2.35c3.6,8.3 8.7,15.48 13.19,22.99c8.77,14.66 13.1,30.3 10.61,47.92c-6.24,-8.54 -14.45,-14.01 -25.53,-14.85c-6.69,-0.51 -13.28,0.33 -19.81,1.38c-16.08,2.6 -32.14,5.14 -48.47,2.42c-2.77,-0.46 -5.49,-1.19 -8.59,-1.97c-0.52,-0.39 -0.7,-0.6 -1.06,-1.2c-0.31,-15.66 -1.67,-30.74 -7.35,-45.13c-1.14,-2.89 -3.05,-5.58 -1.8,-9.33c25.91,13.71 56.14,7.05 74.57,-16.75c7.07,-9.13 12.81,-19 17.27,-29.65c6.87,-16.39 15.09,-31.89 29.5,-43.55z" fill="#FAD014" id="svg_106"/>
  <path d="m599.09,512.97c0.68,6.1 4.65,10.86 6.08,16.59c3.09,12.4 5.29,24.82 3.98,38.03c-0.61,0.78 -1.12,0.94 -2.13,0.79c-20.02,-6.14 -33.77,-19.04 -43.11,-36.98c-1.83,-3.51 -3.24,-7.24 -4.85,-11.26c4.76,-8.44 10.49,-14.88 21.15,-13.66c6.71,0.76 12.72,3.4 18.88,6.49z" fill="#2BA5E5" id="svg_107"/>
  <path d="m709.35,596.08c8.6,-0.48 15.87,-4.48 23.52,-7.08c5.1,-1.75 10.04,-3.99 15.3,-5.51c-7.81,5.91 -16.39,10.37 -25.23,14.35c-5.29,2.38 -10.64,4.61 -16.03,7.18c-4.25,-0.4 -7.73,1.95 -11.47,3.07c-30.61,9.15 -61.96,11.71 -93.71,10.58c-11.64,-0.42 -23.27,-1.18 -34.9,-1.82c-1.8,-0.1 -3.59,-0.37 -5.4,-1.43c7.88,-0.76 15.74,-1.7 23.64,-2.26c21.07,-1.48 42.15,-2.76 63.15,-5.18c19.3,-2.22 38.41,-5.51 57.29,-10.1c1.25,-0.3 2.4,-1.02 3.84,-1.8z" fill="#0B2145" id="svg_108"/>
  <path d="m316.09,668.35c-5.43,1.19 -10.52,2.2 -15.98,3.36c-2,2.44 -4.65,2.5 -7.02,3.07c-4.02,0.96 -8.04,1.92 -12.37,3.25c-8.38,1.85 -15.73,5.85 -24.28,6.96c-0.61,-0.17 -0.84,-0.27 -1.35,-0.64c-0.46,-3.56 2.37,-4.01 4.73,-5.36c2.3,-0.61 4.09,-1.54 6.15,-2.69c0.49,-0.29 0.69,-0.4 1.21,-0.64c5.98,-2.51 11.57,-5.05 17.38,-7.05c1.9,-0.66 3.76,-1.32 6.12,-0.89c5.43,-1.5 10.56,-3.17 16,-4.99c1.07,-2.49 3.23,-2.6 5.09,-3.09c5.09,-1.33 10.2,-2.6 15.75,-3.81c4.82,-0.43 9,-2.92 13.96,-1.4c19.21,-2.86 38.1,-5.68 57.18,-6.92c18.18,-1.19 36.37,-2.22 54.62,-2.8c-45.36,9.4 -91.37,14.89 -137.19,23.64z" fill="#0A2147" id="svg_109"/>
  <path d="m718.65,660.66c0.68,1.6 1.85,0.92 2.99,1.37c0.3,4.05 -2.05,5.19 -5.47,4.76c-1.6,-0.2 -3.11,-1.1 -5.16,-0.3c-29.25,-5.53 -58.41,-9.38 -87.52,-13.57c-21.04,-3.03 -42.02,-6.49 -63.03,-9.77c-0.59,-0.09 -1.17,-0.21 -1.7,-1.14c1.87,0 3.73,-0.05 5.6,0c29.11,0.83 58.29,0.52 87.2,4.96c7.54,1.16 15.08,2.28 23.06,3.29c7.44,-0.53 13.9,2.54 21.14,3.2c5.67,1.17 10.96,2.21 16.15,3.69c2.34,0.67 4.77,1.24 6.74,3.51z" fill="#0C2044" id="svg_110"/>
  <path d="m681.99,572.49c-21.73,15.35 -45.75,24.35 -71.67,28.52c-14.85,2.39 -29.82,2.66 -44.81,2.41c-1.93,-0.03 -3.96,0.24 -6.14,-1.01c41.65,-5.58 82.47,-12.93 121.08,-30.48c0.86,-0.43 1.27,-0.35 1.54,0.56z" fill="#0F2649" id="svg_111"/>
  <path d="m696.35,654.86c-7.36,-0.48 -14.21,-1.94 -21.11,-4.41c2.18,-4.08 5.75,-6.7 8.9,-10.16c9.85,0.01 19.63,-0.92 29.69,0.49c0.53,0.95 0.58,1.71 0.1,2.17c-5.09,4.87 -10.15,9.82 -17.58,11.91z" fill="#034C82" id="svg_112"/>
  <path d="m341.77,654.32c-4.15,1.19 -8.36,2.04 -12.97,2.88c-6.57,-0.74 -17.43,-9.39 -19.46,-15.64c9.25,-1.01 18.4,-1.66 27.93,-2.28c0.57,5.24 2.45,9.99 4.5,15.04z" fill="#FAD014" id="svg_113"/>
  <path d="m710.53,666.7c1.16,-1.73 2.88,-2.11 4.43,-1.44c3.2,1.38 4.94,-0.37 6.83,-2.81c5.26,1.37 10.35,3.03 15.8,4.84c2,0.33 3.68,-0.03 5.63,0.66c5.36,2.44 10.6,4.23 15.94,6.75c2.36,1.64 5.21,2.05 6.3,5.15c-0.13,0.92 -0.42,1.35 -1.22,1.86c-1.87,0.57 -3.33,0.25 -4.73,-0.28c-9.12,-3.44 -18.53,-5.96 -27.89,-8.68c-0.95,-0.28 -1.87,-0.65 -2.72,-1.76c-5.96,-1.57 -11.77,-2.78 -18.04,-3.98c-0.44,-0.01 -0.44,-0.25 -0.33,-0.31z" fill="#0F2649" id="svg_114"/>
  <path d="m449.37,622.92c-0.93,-0.45 -1.48,-0.84 -2.19,-1.41c2.57,-0.34 5.3,-0.49 8.04,-0.63c0.04,0.29 0.09,0.57 0.13,0.86c-1.86,0.41 -3.73,0.83 -5.98,1.18z" fill="#2E4F68" id="svg_115"/>
  <path d="m682.27,572.79c-0.56,-0.16 -0.8,-0.4 -1.25,-0.77c1.53,-1.52 3.51,-2.34 6.9,-3.24c-2.5,1.84 -3.91,2.89 -5.65,4.01z" fill="#2E4F68" id="svg_116"/>
  <path d="m466.76,566.65c-0.07,1.04 -0.35,1.87 -0.72,3.02c-0.27,0.35 -0.47,0.38 -0.96,0.45c-0.29,0.04 -0.33,0.12 -0.37,0.1c-0.23,-0.93 -0.22,-1.85 -0.08,-3.23c0.06,-0.46 -0.02,-0.79 0.11,-0.89c0.69,0.04 1.25,0.19 2.02,0.55z" fill="#051E43" id="svg_117"/>
  <path d="m464.51,566.8c0.27,0.65 0.36,1.58 0.3,2.96c-0.93,-0.52 -0.59,-1.62 -0.3,-2.96z" fill="#2E4F68" id="svg_118"/>
  <path d="m680.5,639.5c0.46,-0.22 1.22,-0.27 2.17,-0.17c-0.5,0.22 -1.18,0.28 -2.17,0.17z" fill="#034C82" id="svg_119"/>
  <path d="m606.86,568.55c0.27,-0.32 0.8,-0.41 1.72,-0.55c0.4,-0.04 0.5,0.43 0.49,0.68c-0.66,0.19 -1.31,0.13 -2.21,-0.13z" fill="#68B7DC" id="svg_120"/>
  <path d="m464.88,564.16c0.14,0.08 0.16,0.27 0.09,0.74c-0.32,0.02 -0.35,-0.28 -0.09,-0.74z" fill="#2E4F68" id="svg_121"/>
  <path d="m361.83,424.94c9.56,-1.26 18.76,0.19 27.99,1.18c3.19,0.34 1.85,2.36 1.5,4.04c-3.13,14.85 -3.61,29.67 0.64,44.39c0.85,2.96 1.26,7.64 4.13,7.85c3.25,0.24 3.71,-4.5 4.79,-7.3c5.37,-13.83 6.13,-28.13 3.72,-42.67c-0.13,-0.78 -0.26,-1.57 -0.53,-3.15c13.18,4.56 24.14,11.22 33.06,21.69c1.63,3.49 1.53,6.71 0.86,10.08c-2.62,13.21 -8.56,24.49 -19.17,32.99c-16.16,12.94 -41.52,10.21 -53.06,-7.64c-8.68,-13.43 -10.85,-28.12 -9,-43.58c0.72,-6.02 0.59,-12.43 5.07,-17.88z" fill="#219EE3" id="svg_122"/>
  <path d="m361.6,424.6c-3.45,14.63 -5.47,29.37 -1.64,44.36c3.03,11.88 8.63,22.12 19.86,28.09c13.82,7.34 31.51,3.64 42.84,-8.61c9.47,-10.24 13.82,-22.56 14.64,-36.72c5.9,5.27 7.45,11.56 4.94,19.8c-8.36,27.43 -52.17,46.42 -78.38,17.46c-13.46,-14.86 -18.6,-33.07 -19.19,-52.68c-0.22,-7.27 2.38,-9.8 9.52,-11.01c2.29,-0.39 4.63,-0.47 7.41,-0.69z" fill="#F2F7F8" id="svg_123"/>
  <path d="m555.73,570.6c0.25,-0.2 0.5,-0.43 0.76,-0.66c-0.08,0.19 -0.16,0.39 -0.5,0.58c-0.26,0.01 -0.25,0.06 -0.26,0.08z" fill="#FCD213" id="svg_124"/>
  <path d="m359,580.01c-0.5,0.28 -1,0.56 -1.52,0.79c-0.03,0.02 -0.22,-0.33 -0.34,-0.52c0.43,-0.09 0.86,-0.19 1.57,-0.29c0.27,-0.01 0.29,0.01 0.29,0.02z" fill="#1C2D47" id="svg_125"/>
  <path d="m363.01,582.7c-0.04,-0.53 0.04,-0.55 0,0z" fill="#1C2D47" id="svg_126"/>
  <path d="m265.63,480.08c-0.52,1.45 -0.83,3.29 -2.51,2.4c-1.02,-0.53 -0.27,-2.23 0.17,-3.13c0.9,-1.81 1.71,-0.71 2.34,0.73z" fill="#55A2BF" id="svg_127"/>
  <path d="m330.89,562.94c-0.21,-6.92 -0.21,-6.92 4.6,-8.62c-0.64,2.76 0.32,5.2 0.47,8.13c-1.07,1.85 -2.47,1.88 -4.35,1.08c-0.36,-0.27 -0.59,-0.49 -0.72,-0.59z" fill="#45A3D0" id="svg_128"/>
  <path d="m331.21,563.38c1.34,-0.24 2.65,-0.35 4.34,-0.5c0.68,0.24 0.97,0.52 1.41,1.06c-0.65,0.85 -1.45,1.43 -2.54,2.08c-0.98,0.53 -1.74,0.48 -2.81,0.17c-0.37,-0.73 -0.43,-1.22 -0.51,-2.08c-0.02,-0.37 0.07,-0.61 0.11,-0.73z" fill="#2BA5E5" id="svg_129"/>
  <path d="m332.97,548.55c-1.02,-1.07 -1.03,-1.94 0.38,-2.1c0.51,-0.06 1.51,0.52 1.56,0.89c0.12,1.03 -0.93,1.06 -1.94,1.21z" fill="#45A3D0" id="svg_130"/>
  <path d="m335.47,541.78c0.36,0.89 0.35,1.53 -0.55,1.6c-0.2,0.02 -0.57,-0.34 -0.62,-0.58c-0.13,-0.72 0.04,-1.3 1.17,-1.02z" fill="#45A3D0" id="svg_131"/>
  <path d="m338.91,549.43c-1.2,0.73 -0.77,-0.27 -0.83,-0.67c-0.03,-0.22 0.26,-0.5 0.4,-0.75c0.16,0.4 0.32,0.8 0.43,1.42z" fill="#45A3D0" id="svg_132"/>
  <path d="m337.8,570.74c-1.3,0.07 -3.11,0.81 -4.07,-1.18c1.67,-1.05 2.71,0.29 4.07,1.18z" fill="#F9D011" id="svg_133"/>
  <path d="m331.31,566.29c0.7,-0.32 1.41,-0.3 2.46,-0.25c-0.45,0.9 -1.25,1.76 -2.46,0.25z" fill="#45A3D0" id="svg_134"/>
  <path d="m338.03,570.98c0.03,-0.03 0.4,0.27 0.4,0.27c0,0 -0.35,0.02 -0.41,-0.09c-0.06,-0.1 -0.01,-0.16 0.01,-0.18z" fill="#F9D011" id="svg_135"/>
  <path d="m679.98,795.37c5.55,-1.6 10.84,-3.06 16.3,-3.77c4.94,-0.64 9.62,0.1 13.98,2.61c6.41,3.69 8,9.76 4.14,16.12c-2.31,3.82 -5.7,6.59 -9.55,8.58c-26.47,13.68 -63.42,12.53 -87.29,-8.49c-15.7,-13.83 -24.02,-31.83 -27.31,-52.01c-2.59,-15.87 9.06,-25.31 23.45,-19.57c9.52,8.61 10.58,19.86 11.24,31.21c0.13,2.13 0.8,4.23 0.21,6.43c-0.31,1.16 0,2.41 1.43,2.76c1.47,0.36 2.03,-0.66 2.46,-1.85c0.85,-2.34 1.92,-4.59 3.05,-7.18c0.56,-1.29 1.3,-2.16 1.03,-3.68c0.32,-1.46 0.88,-2.44 2.11,-3.36c3,-0.32 5.03,-3.44 8.42,-1.99c14.07,-8.54 29.46,-5.3 37.3,7.65c1.61,2.64 2.48,5.5 2.42,8.52c-0.06,2.87 0.76,3.72 3.43,2.33c6.34,-3.28 12.33,-7.27 19.12,-9.69c1.55,-0.55 1.42,-2.09 1.72,-3.35c1.48,-6.17 7.65,-11.09 14.11,-11.24c6.37,-0.16 12.5,4.32 14.28,10.44c1.92,6.59 -0.71,13.58 -6.37,16.92c-5.36,3.16 -12.58,2.32 -17.06,-2.1c-1.3,-1.29 -2.19,-2.99 -4.49,-1.67c-9.23,5.29 -19.53,8.55 -28.45,15.12c-0.24,0.64 -0.14,1.01 0.32,1.26z" fill="#229CDF" id="svg_136"/>
  <path d="m345.5,826.76c-7.62,-1.93 -14.91,-3.5 -21.61,-6.92c-5.8,-2.96 -11.15,-6.41 -14.54,-12.64c-1.15,-8.2 1.12,-11.48 10.36,-15.19c0.71,-0.38 1.13,-0.5 1.9,-0.44c0.82,0.02 1.32,-0.01 2.16,-0.14c4.39,0.42 8.51,-0.43 12.92,0.82c0.83,0.25 1.23,0.38 1.96,0.5c3.2,-1.07 5.35,0.86 8.08,1.87c0.68,0.23 1.04,0.36 1.56,0.29c-2.05,-2.13 -3.98,-4.38 -6.68,-5.82c-2.57,-1.38 -2.93,-3.37 -0.71,-5.62c2.06,-2.08 3.31,-4.75 3.23,-7.6c-0.17,-5.76 2.52,-9.72 7.01,-12.83c0.39,-0.27 0.49,-0.85 0.76,-1.65c9.29,-6.44 18.73,-6.54 28.75,-1.5c1.7,0.76 2.52,-0.39 3.5,-0.86c2.89,-1.4 4.77,-0.34 6.27,2.63c2.46,2.93 3.74,6.33 6.91,8.23c2.01,1.21 3.14,0.75 3.58,-1.43c0.36,-1.77 0.67,-3.52 0.33,-5.41c-1.23,-6.76 0.96,-12.86 4.4,-18.46c3.04,-4.96 7.92,-7.41 13.62,-6.39c5.72,1.01 10.93,2.93 13.35,9.54c2.4,6.56 1.75,13.04 -0.07,19.03c-2.77,9.11 -5.84,18.2 -10.97,26.49c-5.72,9.24 -13.26,16.45 -21.96,22.68c-1.07,0.76 -2.3,1.36 -3.35,2.77c-13.88,7.87 -28.55,10.11 -43.9,8.77c-2.15,-0.19 -4.28,-0.49 -6.86,-0.72z" fill="#219CDF" id="svg_137"/>
  <path d="m728.44,670.87c12.24,1.77 23.54,5.9 35.23,10.03c2.16,0.3 4.03,0.07 6.03,1.11c0.52,0.26 0.72,0.38 1.19,0.72c2.98,1.79 6.34,1.89 8.73,4.29c1.55,1.55 3.07,0.14 4.43,-0.83c2.18,-1.58 3.71,-3.82 5.65,-5.64c0.88,-0.81 1.94,-1.52 3.13,-0.68c1.14,0.81 0.94,2.02 0.56,3.18c-1.06,3.25 -3.26,5.87 -5.43,8.3c-9.18,10.29 -17.73,21.19 -28.36,30.12c-1.67,1.41 -2.75,3.33 -4.34,5.28c-11.52,11.23 -24.4,19.57 -39.97,22.8c-21.7,4.49 -41.09,-14.71 -35.22,-34.8c2.86,-9.81 10.06,-16.63 17.54,-23.09c9.34,-8.08 19.94,-14.29 30.83,-20.79z" fill="#2199DC" id="svg_138"/>
  <path d="m279.69,677c6.4,-2.35 12.68,-4.31 19.65,-5.13c6.19,5.02 13.21,8.23 19.34,12.79c8.45,6.28 16.45,13.02 22.47,21.76c6.51,9.45 7.19,19.29 1.85,29.65c-4.6,8.94 -19.7,15.94 -30.6,13.56c-15.45,-3.37 -28.3,-11.46 -40.13,-21.31c-14.35,-11.95 -27.12,-25.51 -38.38,-40.44c-9.73,-12.9 -5.06,-25.68 10.63,-30.12c7.38,-2.08 14.52,-1.16 21.64,0.81c8.34,2.32 16.44,5.33 24.53,9.21c-7.41,3.17 -15.1,6.22 -23.16,9.34c-2.85,-2.07 -3.34,-4.94 -3.52,-8c-0.32,-5.63 -1.6,-6.8 -7.24,-7.02c-6.86,-0.26 -12.36,1.99 -15.86,8.26c-1.68,3 -2.35,5.81 -0.1,8.81c0.81,1.07 1.62,2.56 1.07,3.73c-2.36,4.98 1.07,8.19 3.36,11.71c2.74,4.2 6.18,7.83 9.82,11.27c0.85,0.8 1.77,1.88 2.98,1.56c5.11,-1.35 8.16,2.24 11.39,4.87c9.41,7.66 18.72,15.42 28.57,22.52c3.42,2.45 6.92,3.82 11.12,3.55c4.38,-0.28 8.2,0.88 11.09,4.49c1.52,1.9 3.61,2.27 5.87,1.4c2.31,-0.88 1.26,-2.69 1.15,-4.25c-0.13,-1.9 0.63,-3.59 1.54,-5.57c0.38,-0.7 0.65,-1.07 1.2,-1.62c0.89,-0.74 1.65,-1.08 2.56,-1.7c0.74,-0.9 0.48,-1.63 0.2,-2.66c-0.22,-1.12 -0.44,-1.91 -1.22,-2.83c-0.29,-0.49 -0.39,-0.69 -0.6,-1.22c-0.74,-3.54 0.2,-5.54 3.54,-6.88c3.98,-1.58 5.34,-6.22 2.85,-9.45c-7.89,-10.28 -17.37,-19.14 -28.91,-24.83c-7.07,-3.5 -15.23,-5.74 -23.66,-4.22c-1.86,0.34 -4.09,0.74 -5.04,-2.04z" fill="#229CDF" id="svg_139"/>
  <path d="m832.95,574.74c2.15,5.8 1.6,11.2 -0.88,16.87c-6.73,9.47 -15.23,13.23 -23.89,10.96c-8.53,-2.24 -14.87,-9.84 -15.56,-18.65c-0.67,-8.64 3.99,-15.83 12.61,-19.44c7.81,-3.28 18.28,-0.93 23.73,5.37c1.3,1.5 2.5,3.09 3.99,4.89z" fill="#6EBAD9" id="svg_140"/>
  <path d="m550.03,790.78c-5.05,-10.59 -2.2,-20.97 6.95,-26.33c8.6,-5.04 19.88,-2.82 25.94,5.11c6.18,8.08 5.07,19.39 -2.6,26.59c-8.84,8.3 -22.12,6.08 -30.29,-5.37z" fill="#68B7DC" id="svg_141"/>
  <path d="m192.71,571.75c6.65,-9.12 20.41,-11.52 29.11,-5.44c9.08,6.34 11.48,18.75 5.37,27.8c-6.38,9.45 -18.28,11.86 -28.32,5.4c-0.86,-2.09 -2.57,-3.02 -3.63,-4.47c-5.2,-7.13 -5.66,-14.82 -2.53,-23.29z" fill="#6EBAD9" id="svg_142"/>
  <path d="m448.73,764.48c11.87,-7.52 28.8,1.44 29.42,16.26c0.39,9.37 -5.54,17.14 -15.12,19.75c-8.79,2.38 -17.55,-1.96 -22.27,-11.05c-3.84,-7.4 -1.82,-16.89 4.85,-22.67c0.88,-0.76 1.86,-1.4 3.12,-2.29z" fill="#6AB7DB" id="svg_143"/>
  <path d="m351.7,761.15c1.29,1.72 1.61,3.01 -0.89,4.17c-3.57,1.67 -5.44,4.7 -4.81,8.87c0.63,4.16 -1.68,7.56 -3.99,10.25c-1.95,2.28 -1.53,2.36 0.52,3.67c3.24,2.06 6.74,3.98 8.32,7.84c-1.43,0.57 -2.45,0 -3.81,-0.49c-2.51,-2.07 -5.63,-2.65 -7.69,-5.33c-0.2,-0.28 -0.23,-0.22 -0.24,-0.25c-1.69,-0.58 -3.55,-0.75 -4.93,-2.61c-5.47,-2.76 -10.71,-5.27 -15.9,-7.87c-1.74,-0.87 -2.9,-0.58 -4.38,0.78c-6.08,5.63 -13.82,5.52 -19.48,-0.07c-5.6,-5.52 -6.12,-13.66 -1.23,-19.34c5.3,-6.16 14.19,-7.06 20.63,-2.03c1.7,1.33 3.85,2.75 4.12,4.84c0.68,5.34 4.54,7.23 8.61,9.29c4.73,2.4 9.32,5.08 14.21,7.88c0.24,0.24 0.07,0.42 0.16,0.33c1.17,-0.62 1.18,-1.62 1.12,-2.61c-0.53,-7.72 3.57,-12.93 9.66,-17.32z" fill="#2A9FDD" id="svg_144"/>
  <path d="m782.67,636.75c1.73,-2.04 -1.17,-1.55 -1.3,-2.55c-0.65,-12.6 4.24,-19.55 14.62,-21.2c8.75,-1.39 17.91,4.53 19.93,12.89c2.17,9.01 -2.76,17.41 -12.12,20.65c-8.49,2.94 -17.28,-1.02 -21.13,-9.79z" fill="#6EB9D6" id="svg_145"/>
  <path d="m755.34,726.9c-0.68,-2.66 1.32,-4.12 2.99,-5.71c11.22,-10.67 21.41,-22.29 31.22,-34.25c1.48,-1.79 2.62,-3.72 3.34,-7.23c-4.1,3.59 -6.47,7.41 -10.32,9.61c-1.83,1.05 -2.93,1.94 -4.03,-0.83c-1.42,-3.61 -5.65,-2.16 -8.35,-4.2c0.25,-0.76 0.58,-1.38 1.3,-2.14c1.59,-1.19 2.96,-2.11 3.6,-4.88c-2.35,2.79 -4.81,3.43 -7.84,3.43c-0.82,0.07 -1.27,-0.02 -1.97,-0.45c-2.24,-1.35 -4.22,-2.46 -6.44,-3.82c-0.29,-2.36 -1,-4.39 0.31,-6.53c3.55,-5.81 4.49,-6.13 12.01,-2.94c-0.43,-0.84 -1.54,-0.74 -1.72,-1.35c-1.54,-5.23 -4.72,-3.57 -7.84,-1.88c-2.1,1.14 -4.29,1.8 -6.66,1.93c-1.52,0.09 -3.13,0.27 -3.97,1.71c-1.89,3.27 -4.62,2.51 -7.75,1.82c-1.79,-0.44 -3.24,-0.93 -4.98,-1.59c10.53,-4.98 21.55,-8.95 33.53,-9.91c8.71,-0.7 15.36,3.19 21.33,8.68c4.02,3.7 4.73,10.9 1.66,16.8c-4.82,9.26 -12.46,16.38 -19.23,24.14c-6.11,7 -12.86,13.38 -20.19,19.59z" fill="#229CDF" id="svg_146"/>
  <path d="m243.38,633.85c-0.21,1.1 -1.72,0.71 -1.17,2.19c-3.37,8.31 -10.89,12.55 -18.96,10.97c-8.08,-1.58 -14.74,-9.9 -14.76,-18.41c-0.01,-7.22 5.88,-13.66 14.35,-15.68c7.06,-1.69 15.99,2.9 19.5,9.83c1.78,3.5 1.37,7.07 1.04,11.1z" fill="#6EBAD9" id="svg_147"/>
  <path d="m643.68,760.88c-2.31,0.66 -3.79,3.91 -7.3,3.12c-1.85,-1.22 -1.32,-2.79 -1.29,-4.65c0.25,-2.48 0.45,-4.65 1.07,-6.7c1.39,-4.54 2.07,-8.05 -3.54,-10.99c-4.87,-2.56 -5.81,-9.96 -3.5,-15.29c2.55,-5.87 8.94,-9.2 16.04,-8.35c5.79,0.69 11.06,5.87 11.95,11.75c0.84,5.58 -2.15,11.99 -7.29,13.99c-3.22,1.24 -4.2,3.22 -4.59,6.23c-0.46,3.58 -1.22,7.13 -1.55,10.89z" fill="#2A9FDD" id="svg_148"/>
  <path d="m396.35,818.95c-0.61,-1.94 0.66,-2.96 2.1,-3.92c14.35,-9.52 23.94,-22.52 29.55,-38.85c1.94,-5.65 3.99,-11.18 4.76,-17.1c0.76,-5.78 0.64,-12.2 -4.13,-15.58c-4.86,-3.45 -10.97,-6.59 -17.62,-2.53c-5.22,3.19 -10.01,14.19 -8.8,21.05c0.12,0.65 0.52,1.27 0.54,1.92c0.1,3.08 -0.28,6.51 -3.07,7.89c-2.94,1.46 -4.52,-1.84 -6.13,-3.72c-1.39,-1.62 -2.33,-3.61 -3.52,-5.78c-2.37,-3.67 -4.72,-6.99 -5.78,-11.12c-1.33,0.92 -1.21,2.64 -2.97,2.93c-1.07,-4.94 -2.43,-8.7 -7.9,-10.88c-5.19,-2.07 -7.3,-10.32 -5.52,-15.77c1.8,-5.52 8.06,-9.68 14.41,-9.58c6.21,0.09 12.03,4.5 13.79,10.44c1.67,5.64 -0.61,12.12 -5.69,15.12c-2.23,1.32 -3.14,2.75 -2.41,5.24c1.3,4.41 2.85,8.68 3.62,13.32c0.56,3.38 4.25,6.06 8.23,8.32c0,-3.2 -0.01,-6.05 0.01,-8.91c0.03,-5.93 1.35,-11.53 4.43,-16.66c3.55,-5.93 9.02,-8.26 15.65,-7.65c6.43,0.59 10.47,4.14 13.38,10.15c3.24,6.68 1.93,13.06 0.33,19.33c-2.37,9.26 -5.73,18.2 -10.59,26.57c-6.43,11.07 -15.3,19.45 -26.67,25.77z" fill="#219EE3" id="svg_149"/>
  <path d="m696.37,655.13c5.59,-4.57 11.54,-9 17.64,-13.75c5.1,-2.56 10.47,-1.53 15.62,-2.2c3.09,-0.39 6.24,-0.32 9.82,-0.41c-4.39,6.73 -10.32,12.39 -16.53,17.77c-1.36,1.18 -2.89,2.18 -3.89,4.16c-7.54,-1.6 -14.92,-3.51 -22.66,-5.57z" fill="#FBFCFA" id="svg_150"/>
  <path d="m309.04,641.08c5.44,6.58 11.94,11.34 19.02,15.96c-6.53,1.87 -13.39,3.58 -20.66,5.42c-0.36,-1.86 -2.01,-2.58 -3.19,-3.67c-6.12,-5.67 -12.35,-11.24 -17.56,-18.24c7.27,-0.09 14.62,0.16 22.39,0.53z" fill="#F8F8F4" id="svg_151"/>
  <path d="m531.8,870.43c3.3,-7.65 6.41,-14.95 9.41,-22.29c3.8,-9.31 5.29,-18.88 3.02,-28.85c-0.25,-1.1 -0.22,-2.26 -0.33,-3.55c8.54,4.59 11.65,16.36 7.04,26.8c-4.51,10.22 -11.09,19.29 -16.97,29.13c-1.62,1.08 -2.22,0.48 -2.17,-1.24z" fill="#45A3D0" id="svg_152"/>
  <path d="m211.87,548.19c-5.29,-3.33 -3.79,-7.67 -2.68,-12.07c0.38,-1.48 -1.34,-4.2 0.15,-4.53c3.23,-0.7 4.43,-4.4 8.07,-4.37c5.5,0.04 10.07,6.76 7.67,12.39c-0.97,2.29 -1.89,3.39 1.1,4.76c1.88,0.86 1.24,2.29 -1.28,2.98c-0.28,0.08 -0.73,0.24 -0.78,0.44c-1.95,8.46 -8.26,2.76 -12.6,3.49c-0.17,-1.28 3.23,-1.17 0.35,-3.09z" fill="#5AA4C1" id="svg_153"/>
  <path d="m798.55,551.45c1.23,-1.63 0.86,-3.11 -0.31,-4.56c-1.32,0.84 -2.35,0.81 -3.35,-0.48c0,-0.43 0.17,-0.84 0.25,-1.05c3.01,-4.09 3.16,-4.14 6.89,-2.97c-1.22,-2.25 -2.48,-4.62 -5.64,-5.19c1.26,-3.77 -1.05,-9.58 6.26,-9.4c2.16,0.42 3.89,1.02 5.67,1.39c3,0.62 4.23,2.24 3.62,5.33c-0.52,2.63 -0.81,5.29 1.42,7.44c0.23,0.21 0.37,0.56 0.45,0.87c0.33,1.31 -5.68,9.01 -7.04,9.01c-2.64,-0.02 -5.28,-0.09 -8.22,-0.39z" fill="#55A2BF" id="svg_154"/>
  <path d="m492.54,871.05c-5.14,-7.32 -10.53,-14.13 -14.62,-21.77c-5.19,-9.68 -4.06,-20.3 3.29,-27.79c-2.47,9.03 -0.58,17.53 2.12,26.09c2.52,8 6.75,15.12 10.35,22.58c0.12,0.24 0.05,0.68 -0.1,0.92c-0.11,0.16 -0.51,0.12 -1.04,-0.03z" fill="#449AC5" id="svg_155"/>
  <path d="m634.71,759.27c1.65,0.87 1.2,2.48 1.29,4.34c-1.01,0.89 -1.73,1.62 -1.93,3.11c0.51,1.02 0.42,1.82 0.15,2.95c-2.47,2.71 -2.88,5.97 -4.17,8.8c-0.85,1.88 -2,3.19 -4.1,2.75c-2.15,-0.44 -1.99,-2.38 -1.94,-4.04c0.26,-7.81 -1.09,-15.49 -2.21,-23.15c-0.81,-5.55 -5.19,-9.65 -7.94,-14.63c10.03,6.32 10.91,16.84 11.95,27.25c0.39,3.84 0.5,7.72 0.82,13.05c3.88,-7.34 5.97,-13.71 8.08,-20.43z" fill="#219EE3" id="svg_156"/>
  <path d="m380.94,754.39c1.18,-1.34 0.99,-2.69 1.09,-3.98c0.08,-1.06 -0.4,-2.6 1.18,-2.81c1.45,-0.2 2.54,0.75 2.68,2.25c0.39,4.14 2.95,7.5 4.04,11.77c-2.18,-3.5 -5.8,0.56 -8.67,-1.36c2.21,-2.03 -0.5,-3.74 -0.32,-5.87z" fill="#2A9FDD" id="svg_157"/>
  <path d="m192.47,571.46c0.22,1.2 0.19,2.52 -0.06,3.79c-1.46,7.63 -0.57,14.6 5.21,20.4c0.78,0.78 2.52,1.39 1.29,3.35c-3.89,-1.66 -6.25,-4.6 -7.71,-8.74c-1.61,-4.89 -1.2,-9.56 -1.06,-14.68c0.54,-1.68 0.51,-3.28 2.33,-4.12z" fill="#68B7DC" id="svg_158"/>
  <path d="m531.85,870.38c0.35,0.43 0.44,1.19 1.6,1.48c-1.18,2.97 -2.63,5.9 -4.08,8.82c-0.41,-0.15 -0.81,-0.3 -1.22,-0.45c0.73,-3.31 1.96,-6.48 3.7,-9.85z" fill="#5AA4C1" id="svg_159"/>
  <path d="m339.14,790.21c3.08,0.2 5.28,2.27 7.85,4.29c0.27,0.51 0.36,0.74 0.24,1.26c-2.68,-0.7 -5.14,-1.7 -7.93,-2.86c-0.27,-0.88 -0.22,-1.6 -0.16,-2.69z" fill="#CAB42E" id="svg_160"/>
  <path d="m211.48,548.33c3.45,-4.16 3,3.91 6.17,0.91c-1.72,2.32 -3.74,1.35 -5.88,1.67c-0.4,-0.73 -0.41,-1.48 -0.29,-2.58z" fill="#2BA5E5" id="svg_161"/>
  <path d="m336.91,792.06c-3.84,0.02 -7.88,-0.26 -12.35,-0.64c3.79,-0.78 7.99,-0.98 12.35,0.64z" fill="#CAB42E" id="svg_162"/>
  <path d="m333.99,787.43c1.54,0.37 3.15,1.11 4.94,2.13c-1.75,0.19 -4.13,1.24 -4.94,-2.13z" fill="#CAB42E" id="svg_163"/>
  <path d="m321.77,791.46c-0.24,0.28 -0.66,0.4 -1.39,0.47c0.04,-0.64 0.54,-0.88 1.39,-0.47z" fill="#CAB42E" id="svg_164"/>
  <path d="m750.45,582.53c-0.03,-0.05 0.03,0.04 0,0z" fill="#0B2145" id="svg_165"/>
  <path d="m752.52,581.49c0.01,0.03 -0.02,-0.03 0,0z" fill="#0B2145" id="svg_166"/>
  <path d="m796.17,537.25c3.94,-2.79 6.16,-2.38 5.93,2.72c-0.08,1.74 1.29,2.09 2.69,2.58c-3.23,0 -6.45,-0.04 -9.24,2.54c-1.04,-2.55 -0.71,-5.04 0.62,-7.84z" fill="#A4B47E" id="svg_167"/>
  <path d="m794.67,546.2c0.83,0.6 1.65,0.86 2.96,0.75c-1.01,0.99 -2.46,2.53 -2.96,-0.75z" fill="#A4B47E" id="svg_168"/>
  <path d="m584.73,450.47c8.57,-11.52 20.32,-17.47 33.51,-21.83c0.55,-0.01 0.73,0.02 0.95,0.32c-2.96,14.79 -3.04,29.29 0.81,43.68c0.85,3.19 2.07,6.3 3.33,9.36c0.54,1.31 1.05,3.25 2.69,3.27c1.96,0.03 2.35,-2.11 2.95,-3.55c2.74,-6.65 4.36,-13.63 4.89,-20.75c0.77,-10.48 0.48,-20.95 -2.46,-31.15c-0.76,-2.61 -0.68,-3.72 2.56,-4c8.78,-0.76 17.54,-1.56 26.85,-0.92c2.01,1.5 2.84,3.25 3.32,5.25c3.96,16.57 4.19,33.03 -2.57,48.94c-5.59,13.15 -14.35,23.03 -29.33,25.82c-10.43,1.93 -19.46,-1.22 -27.45,-7.49c-13.49,-10.58 -20.04,-24.89 -21.3,-41.8c-0.13,-1.72 0.24,-3.3 1.25,-5.15z" fill="#FCD312" id="svg_169"/>
  <path d="m584.64,450.25c0.69,16.84 5.55,31.89 18.44,43.79c15.66,14.46 37.49,12.86 50.32,-4.16c10.51,-13.95 12.97,-30.03 11.16,-46.94c-0.61,-5.77 -2.1,-11.45 -3.23,-17.55c3.12,-0.55 6.25,-0.34 9.37,0.31c6.32,1.31 9.25,3.7 9.01,9.92c-0.93,24.46 -7.96,46.65 -27.89,62.42c-17.44,13.8 -40.33,11.68 -58.41,-4.15c-8.44,-7.38 -13.63,-16.45 -15.56,-27.59c-1.19,-6.9 2.81,-11.24 6.79,-16.05z" fill="#F8F8F4" id="svg_170"/>
  <path d="m618.76,428.76c0.42,-0.61 0.89,-0.84 0.66,0.35c-0.19,0.11 -0.5,-0.19 -0.66,-0.35z" fill="#FCD312" id="svg_171"/>
  <path d="m748.63,486.13c5.07,-10.07 8.47,-20.02 6.39,-31.12c5.33,12.16 2.11,22.85 -5.74,33.02c-0.69,-0.29 -0.85,-0.84 -0.65,-1.9z" fill="#CAB42E" id="svg_172"/>
  <path d="m736.29,473.33c0.47,-1.23 0.63,-2.56 1.78,-2.51c1.49,0.06 0.95,1.42 0.9,2.29c-0.32,5.12 -2.52,9.22 -7.08,13.15c-0.43,-5.59 3.25,-8.63 4.4,-12.93z" fill="#CAB42E" id="svg_173"/>
  <path d="m748.49,485.92c0.32,0.33 0.4,0.89 0.49,1.88c-0.62,1.48 -0.96,2.8 -2.67,3.33c-0.63,-2.26 1.49,-3.34 2.18,-5.21z" fill="#A4B47E" id="svg_174"/>
  <path d="m637.45,546.73c-1.83,-2.05 -2.87,-1.71 -3.79,0.43c-0.61,1.42 -1.85,2.61 -3.47,2.38c-1.96,-0.28 -1.73,-2.14 -1.84,-3.59c-0.05,-0.82 0.14,-2.08 -0.67,-2.22c-7.65,-1.31 -1.19,-6.67 -2.84,-9.67c3.43,-1.78 6.72,-4.35 10.36,-5c1.89,-0.34 4.46,2.29 7.33,2.05c1.51,-0.12 1.71,1.41 1.57,2.58c-0.24,2.06 -0.23,3.96 1.47,5.48c0.27,0.25 -5.41,9.93 -5.65,9.75c-0.79,-0.57 -1.47,-1.29 -2.47,-2.19z" fill="#45A3D0" id="svg_175"/>
  <path d="m329.88,733.7c0.53,3.26 -3.56,6.39 0.65,9.26c0.82,0.56 -0.38,1.5 -1.34,2.05c-4.64,2.63 -7.31,2.15 -10.95,-2.14c-1.73,-2.03 -4.02,-3.27 -6.61,-2.81c-7.94,1.43 -13.64,-2.83 -19.27,-7.26c-9.73,-7.64 -19.39,-15.36 -29.08,-23.04c-1.4,-1.11 -2.75,-2.88 -4.36,-0.17c-1.1,1.84 -1.98,0.26 -2.7,-0.39c-4.91,-4.46 -9.75,-9.03 -12.99,-14.9c-1.01,-1.84 -2.79,-2.83 -3.8,-4.42c-0.97,-1.53 -0.67,-3.56 0.46,-5.19c0.81,-1.16 1.38,-2.36 0.43,-3.66c-1.74,-2.36 -4.28,-4.44 -2.72,-7.92c2.22,-4.94 5.03,-9.33 10.33,-11.53c4.56,-1.9 9.44,-1.24 14.09,-1.2c3.13,0.03 1.86,5.15 4.46,6.78c-2.83,3.26 1.2,6.07 0.64,9.6c0.04,0.41 0.01,0.39 0.01,0.37c-1.85,0.91 -4.51,-0.04 -5.91,2.68c-2.16,1.34 -4.09,2.45 -6.14,3.87c-0.29,0.54 -0.52,0.68 -0.77,0.68c0.04,-0.03 0.4,-0.1 0.54,-0.22c8.16,-2.54 16.18,-4.95 24.59,-7.42c3.87,2.37 7.63,0.32 11.22,0.39c3.57,0.06 6.9,0.12 10.02,2.01c3.75,2.25 8.3,1.47 12.23,4.43c9.81,7.42 19.52,14.78 26.73,24.9c2.15,3.01 -0.66,10.98 -4.24,10.96c-4.39,-0.02 -3.24,2.54 -3.4,5.19c-2.71,1.24 -4.02,-0.89 -5.3,-2.43c-7.19,-8.61 -15.74,-15.64 -25.43,-21.1c-6.46,-3.64 -13.37,-6.59 -20.83,-7.86c-1.42,-0.24 -2.69,-0.28 -3.68,0.74c-1.1,1.12 -0.24,2.26 0.46,3.12c7.53,9.27 15.23,18.37 27.19,22.89c0.59,0.05 0.82,0.08 1.4,0.24c0.56,0.22 0.77,0.33 1.28,0.65c0.47,0.37 0.64,0.53 1.04,0.97c5.45,4.45 11.88,6.11 17.87,8.66c1.57,0.67 3.05,1.22 3.88,3.22z" fill="#219ADD" id="svg_176"/>
  <path d="m261.35,680.01c-0.59,-4.59 2.33,-3.58 5.4,-2.94c-1.43,0.99 -3.24,1.95 -5.4,2.94z" fill="#229CDF" id="svg_177"/>
  <path d="m743.14,669.48c3.78,-0.16 5.85,-3.97 8.9,-5.07c3.37,-1.21 7.36,-0.67 10.58,-3.2c1.07,-0.83 2.81,-0.94 4.28,-1.1c1.43,-0.15 3.22,-0.7 4.23,0.55c1.3,1.61 -1.93,2.07 -1.29,3.9c2.08,0.62 4.26,1.27 6.44,1.92c-3.13,1.57 -6.13,3.92 -9.27,0.11c-1.56,-1.9 -2.7,-1.41 -4.09,0.77c-1.74,2.74 -2.98,5.54 -4,8.74c-5.39,-2.07 -10.46,-4.23 -15.78,-6.62z" fill="#2199DC" id="svg_178"/>
  <path d="m764.9,680.22c0.54,-0.13 0.95,-0.06 1.68,0.1c1.79,-0.42 2.82,0.14 3.37,2.16c-2.09,0.68 -3.74,-0.21 -5.66,-1.27c0.03,-0.37 0.27,-0.56 0.61,-0.99z" fill="#02497E" id="svg_179"/>
  <path d="m634.23,769.8c-0.22,-0.54 -0.21,-1.28 -0.2,-2.39c0.91,0.37 1.08,1.22 0.2,2.39z" fill="#2A9FDD" id="svg_180"/>
  <path d="m680.05,795.04c-0.38,0.82 -1,1.41 -1.8,0.64c-0.08,-0.08 0.37,-0.73 0.88,-1.22c0.44,0.04 0.58,0.2 0.92,0.58z" fill="#FCD213" id="svg_181"/>
  <path d="m347.22,796.27c-0.17,-0.42 -0.13,-0.63 -0.07,-1.16c0.98,0.03 1.93,0.39 3.17,0.88c-0.47,3.07 -1.8,0.67 -3.1,0.28z" fill="#A4B47E" id="svg_182"/>
  <path d="m736.62,708.61c-9.67,9.81 -26.61,19.35 -42.72,24.15c5.75,-15.81 33.95,-35.73 54.99,-38.44c-3.81,5.31 -7.62,9.91 -12.27,14.29z" fill="#F0C81E" id="svg_183"/>
  <path d="m771.62,682.83c-0.17,0.54 -0.6,0.86 -1.33,1.21c-0.3,0.02 -0.43,-0.41 -0.46,-0.63c-0.03,-0.23 0.11,-0.36 0.17,-0.43c0.45,-0.36 0.88,-0.46 1.62,-0.15z" fill="#02497E" id="svg_184"/>
  <path d="m306.33,721.4c-0.41,-0.32 -0.53,-0.46 -0.93,-0.65c-4.8,-0.64 -8.11,-3.69 -11.48,-6.21c-6.53,-4.89 -11.95,-11.02 -16.98,-17.44c-0.89,-1.14 -2.29,-2.34 -1.04,-3.92c0.96,-1.22 2.46,-0.68 3.73,-0.42c10.92,2.25 20.81,6.93 29.85,13.31c9.02,6.36 16.45,14.42 23.21,23.1c0.52,0.67 0.94,1.36 1.03,2.59c-0.37,1.54 -1.19,1.21 -2.29,0.95c-8.47,-2.75 -16.58,-5.57 -24.1,-10.58c-0.22,-0.3 -0.23,-0.22 -0.19,-0.22c-0.15,-0.11 -0.35,-0.22 -0.81,-0.51z" fill="#F0C81E" id="svg_185"/>
  <path d="m333.98,731.94c-8.14,-9.21 -15.97,-18.66 -26.31,-25.55c-9.55,-6.37 -19.7,-11.26 -32.09,-13c8.16,11.44 17.43,20.41 29.33,27.06c-2.14,2.53 -3.79,0.03 -5.42,-0.85c-7.7,-4.14 -13.81,-10.2 -19.48,-16.74c-1.42,-1.63 -2.74,-3.34 -4.09,-5.02c-1.18,-1.46 -2.37,-3.17 -1.17,-4.94c1.08,-1.6 3.26,-1.67 4.94,-1.37c3.1,0.54 6.18,1.36 9.13,2.43c15.27,5.52 28.14,14.52 38.63,26.93c1.17,1.39 2.63,2.53 4.25,3.95c0.3,0.16 0.3,0.16 0.3,0.16c0.8,0.68 1.17,1.63 1.8,2.76c0.69,1.45 1.66,2.64 0.18,4.18z" fill="#219DE1" id="svg_186"/>
  <path d="m307.13,722.2c7.83,3.08 15.67,6.54 23.76,10.23c0.01,0.58 -0.2,0.91 -0.66,1.43c-6.96,-2.8 -13.67,-5.82 -20.41,-8.74c-1.28,-0.55 -2.45,-1 -2.69,-2.92z" fill="#219DE1" id="svg_187"/>
  <path d="m333.99,727.65c-1,-0.14 -1.71,-0.87 -1.95,-2.33c1.33,-0.16 1.93,0.66 1.95,2.33z" fill="#219ADD" id="svg_188"/>
  <path d="m343.4,725.67c0.12,0.77 -0.28,1.1 -0.7,0.66c-0.41,-0.44 -0.06,-0.82 0.7,-0.66z" fill="#219ADD" id="svg_189"/>
  <path d="m813.9,586.04c-2.28,0.14 -3.69,-0.48 -3.83,-2.58c-0.12,-1.78 1.04,-2.69 2.57,-3.15c1.24,-0.37 2.39,0.07 2.97,1.18c0.95,1.81 0.91,3.5 -1.71,4.55z" fill="#0A5491" id="svg_190"/>
  <path d="m566.11,782.82c-0.76,-1.89 -0.68,-3.35 1.51,-3.34c1.24,0.01 2.4,0.86 2.19,2.21c-0.33,2.12 -2.01,1.65 -3.7,1.13z" fill="#E0C636" id="svg_191"/>
  <path d="m212.4,585.36c-2.83,1.14 -4.99,1.02 -5.31,-2.24c-0.2,-2.01 1.21,-3.14 3.06,-2.96c3.12,0.3 3.62,2.28 2.25,5.2z" fill="#0A5491" id="svg_192"/>
  <path d="m460.58,783c-1.78,1.39 -3.39,1.37 -4.26,-0.51c-0.49,-1.04 -0.09,-2.51 1.3,-2.79c2.25,-0.45 2.8,1.2 2.96,3.3z" fill="#E0C636" id="svg_193"/>
  <path d="m341,781c-0.11,0.79 -0.28,1.56 -1.36,1.18c-0.25,-0.08 -0.62,-0.41 -0.59,-0.56c0.15,-0.84 0.89,-0.48 1.68,-0.61c0.27,-0.02 0.27,-0.01 0.27,-0.01z" fill="#219EE3" id="svg_194"/>
  <path d="m800.98,629.45c0.26,2.19 -0.78,2.68 -2.3,2.11c-0.83,-0.3 -1.11,-1.21 -0.66,-2.06c0.72,-1.34 1.71,-1.32 2.96,-0.05z" fill="#E0C636" id="svg_195"/>
  <path d="m772.26,683.02c-0.77,0 -1.18,-0.04 -1.89,-0.09c-1.22,-0.73 -2.13,-1.44 -3.26,-2.34c-0.01,-1.43 0.36,-2.71 1.96,-1.95c2.17,1.03 2.65,0.37 3.13,-1.85c0.68,-3.09 2.91,-1.14 4.37,-0.63c1.79,0.64 1.59,2.26 0.34,3.07c-1.63,1.08 -1.75,3.81 -4.65,3.79z" fill="#2199DC" id="svg_196"/>
  <path d="m792.99,673.42c-0.87,-0.52 -0.94,-1.11 -0.39,-1.65c0.15,-0.14 0.68,-0.13 0.82,0.01c0.52,0.56 0.45,1.15 -0.43,1.64z" fill="#2199DC" id="svg_197"/>
  <path d="m793.33,677.4c-0.77,0.12 -1.1,-0.28 -0.66,-0.7c0.44,-0.41 0.82,-0.06 0.66,0.7z" fill="#2199DC" id="svg_198"/>
  <path d="m224.77,631.08c-0.55,-1.91 -0.51,-3.47 1.74,-2.9c1.41,0.36 2.9,1.97 2.4,3.16c-0.88,2.08 -2.6,0.86 -4.14,-0.26z" fill="#E0C636" id="svg_199"/>
  <path d="m391.24,724.87c4.29,6.75 3.21,11.87 -3.13,16.77c-0.87,0.67 -1.61,1.68 -2.07,2.7c-0.69,1.55 -1.89,1.75 -3.26,1.57c-5.66,-0.77 -12.44,-8.51 -12.85,-13.96c-0.41,-5.43 2.85,-8.32 6.79,-10.57c4.55,-2.6 8.95,-1.4 12.88,1.8c0.51,0.41 0.94,0.93 1.64,1.69z" fill="#2A9FDD" id="svg_200"/>
  <path d="m218.1,538.57c-0.43,-1.83 -0.2,-3.28 1.82,-3.3c1.36,-0.02 3.27,-0.51 3.56,1.53c0.26,1.83 -1.38,1.9 -2.68,2c-0.81,0.06 -1.62,-0.01 -2.7,-0.23z" fill="#A4B47E" id="svg_201"/>
  <path d="m252.67,684.95c-0.09,0.82 -1,1.39 -1.48,0.71c-0.53,-0.76 0.64,-0.6 1.48,-0.71z" fill="#034C82" id="svg_202"/>
  <path d="m252.86,684.84c0.45,-0.37 0.97,-0.66 1.81,-0.9c0.3,0.06 0.33,0.06 0.33,0.07c-0.44,0.35 -0.88,0.69 -1.6,1.07c-0.3,0.03 -0.46,-0.15 -0.54,-0.24z" fill="#034C82" id="svg_203"/>
  <path d="m306.2,721.38c0.18,-0.19 0.47,-0.09 0.85,0.33c-0.18,0.15 -0.45,0.03 -0.85,-0.33z" fill="#219DE1" id="svg_204"/>
  <path d="m-264,189l-10,-27l10,27z" fill="#FCD213" id="svg_99"/>
 </g>
</svg>